<?xml version="1.0" standalone="no"?>
<!DOCTYPE svg PUBLIC "-//W3C//DTD SVG 20010904//EN"
 "http://www.w3.org/TR/2001/REC-SVG-20010904/DTD/svg10.dtd">
<svg version="1.0" xmlns="http://www.w3.org/2000/svg"
 width="4096.000000pt" height="4096.000000pt" viewBox="0 0 4096.000000 4096.000000"
 preserveAspectRatio="xMidYMid meet">

<g transform="translate(0.000000,4096.000000) scale(0.100000,-0.100000)"
fill="#000000" stroke="none">
<path d="M20324 40550 c-73 -11 -147 -36 -237 -82 -75 -39 -96 -54 -289 -207
-247 -196 -952 -630 -1683 -1033 -1180 -653 -2305 -1203 -3236 -1584 -801
-327 -1721 -609 -2509 -769 -1560 -317 -4957 -800 -6615 -940 -165 -14 -330
-32 -366 -40 -303 -66 -520 -234 -633 -489 -92 -208 -171 -608 -182 -916 -11
-349 -35 -2005 -41 -2875 -22 -3413 164 -6182 588 -8750 217 -1316 490 -2518
894 -3940 400 -1410 797 -2568 1239 -3618 1069 -2535 2483 -4914 4191 -7047
1179 -1472 2945 -3188 5010 -4866 1222 -993 2574 -1986 3863 -2836 l162 -107
273 181 c3053 2031 6010 4522 8017 6753 1042 1158 2148 2685 3092 4270 744
1249 1458 2689 2003 4040 467 1157 939 2639 1365 4285 613 2363 975 4905 1125
7880 77 1540 91 3124 51 5580 -19 1117 -21 1174 -46 1345 -61 408 -147 662
-276 821 -94 115 -262 220 -428 268 -115 34 -171 42 -416 61 -1520 118 -5117
628 -6662 945 -976 200 -1957 520 -3012 984 -1563 688 -3882 1958 -4467 2447
-167 140 -293 207 -434 234 -76 15 -253 17 -341 5z m651 -1515 c814 -535 2353
-1371 3560 -1935 1115 -521 2046 -863 2995 -1100 639 -160 1025 -245 1570
-345 1584 -290 4434 -690 5815 -815 328 -30 314 -28 320 -53 24 -106 26 -188
55 -1922 21 -1259 12 -3063 -20 -4045 -95 -2887 -379 -5350 -885 -7675 -231
-1061 -790 -2965 -1215 -4135 -748 -2062 -1829 -4190 -3101 -6106 -455 -685
-816 -1180 -1335 -1829 -1476 -1846 -3824 -4026 -6490 -6027 -582 -437 -941
-695 -1507 -1082 l-258 -177 -252 173 c-554 378 -967 675 -1557 1118 -2302
1731 -4411 3639 -5891 5330 -474 542 -1066 1300 -1504 1925 -1404 2003 -2673
4430 -3477 6650 -438 1208 -980 3053 -1222 4155 -484 2206 -772 4637 -876
7385 -49 1325 -55 3069 -16 5215 14 756 25 1027 45 1058 3 6 112 20 241 32
1443 131 4281 529 5932 831 797 145 1721 370 2366 575 1091 347 2419 941 3957
1772 951 514 1614 912 2110 1266 l146 105 162 -116 c89 -64 238 -167 332 -228z"/>
<path d="M19001 35083 c-212 -7 -386 -15 -388 -17 -2 -2 1 -86 7 -187 16 -281
120 -3435 120 -3645 l0 -184 48 1 c209 2 1932 66 1937 71 8 8 -11 588 -20 596
-2 3 -239 -3 -526 -12 -286 -10 -522 -16 -523 -14 -5 6 -107 3140 -106 3276
l0 132 -82 -1 c-46 -1 -256 -8 -467 -16z"/>
<path d="M21696 35039 c-3 -35 -8 -134 -11 -219 -7 -196 -191 -3358 -208
-3577 l-13 -163 33 0 c18 0 227 -11 464 -26 237 -14 433 -23 435 -21 2 2 8
106 14 233 16 346 188 3311 205 3529 8 105 15 204 15 221 l0 29 -412 23 c-227
13 -436 25 -465 28 l-51 6 -6 -63z"/>
<path d="M15988 34845 c-396 -54 -713 -191 -888 -382 -110 -120 -170 -234
-212 -399 -21 -81 -23 -112 -23 -344 1 -187 5 -289 18 -380 28 -203 217 -1396
238 -1510 44 -231 104 -434 170 -578 133 -290 369 -470 693 -529 125 -23 402
-22 556 1 608 91 965 342 1078 755 25 92 26 106 26 366 1 311 9 240 -134 1154
-137 872 -184 1088 -290 1316 -142 309 -387 485 -745 534 -102 15 -367 12
-487 -4z m204 -657 c62 -18 133 -89 172 -172 40 -85 58 -144 85 -291 39 -205
280 -1762 292 -1880 31 -318 -79 -478 -332 -479 -77 0 -161 35 -204 86 -45 53
-86 148 -116 264 -32 128 -304 1842 -318 2013 -15 165 6 287 61 362 26 36 90
75 151 94 53 17 158 19 209 3z"/>
<path d="M24699 34820 c-178 -21 -381 -99 -508 -196 -203 -153 -349 -475 -440
-969 -28 -153 -216 -1312 -238 -1465 -22 -161 -25 -579 -4 -685 85 -432 432
-701 1036 -806 144 -25 431 -36 550 -20 488 65 744 329 895 925 41 163 87 402
79 410 -4 5 -826 141 -893 149 -17 2 -23 -17 -53 -188 -60 -342 -118 -505
-205 -579 -83 -71 -211 -85 -342 -36 -153 58 -207 197 -177 460 22 192 302
1883 331 2002 49 199 119 302 223 333 60 18 94 19 172 4 165 -30 245 -122 260
-301 7 -79 -3 -193 -36 -411 -12 -76 -19 -140 -17 -143 3 -3 198 -36 434 -74
236 -39 441 -73 455 -75 l25 -6 17 123 c58 424 40 720 -58 927 -138 290 -430
488 -853 577 -226 48 -474 65 -653 44z"/>
<path d="M27746 34157 c-9 -29 -40 -140 -70 -247 -78 -277 -934 -3180 -1000
-3388 -36 -116 -50 -175 -43 -177 44 -15 1986 -584 2002 -587 17 -3 28 27 104
284 46 158 82 290 80 292 -2 3 -255 79 -562 169 -307 90 -559 166 -562 168 -7
8 321 1113 332 1116 6 2 207 -54 447 -125 285 -84 439 -126 442 -118 13 39
173 590 171 591 -1 1 -200 59 -442 130 -242 71 -442 130 -444 131 -5 4 270
937 280 948 4 4 255 -65 558 -154 304 -89 553 -161 555 -159 5 5 175 583 173
586 -1 0 -447 132 -992 292 -544 161 -996 294 -1002 296 -8 3 -18 -15 -27 -48z"/>
<path d="M12580 34004 c-58 -8 -154 -26 -215 -41 -108 -25 -1273 -368 -1282
-377 -2 -2 23 -89 55 -193 75 -235 961 -3221 1032 -3476 33 -116 57 -187 64
-184 6 2 207 62 446 132 239 71 437 130 439 131 2 2 -31 113 -72 246 -60 192
-230 758 -370 1234 l-15 51 146 43 c667 193 1008 467 1098 881 19 90 22 302 5
414 -28 184 -94 401 -170 561 -148 310 -348 485 -641 561 -123 32 -362 40
-520 17z m68 -689 c123 -55 217 -188 285 -400 81 -254 86 -409 17 -545 -29
-57 -111 -133 -182 -168 -80 -39 -268 -97 -277 -86 -9 10 -341 1128 -341 1147
0 12 96 43 245 81 11 3 59 4 106 2 67 -3 98 -9 147 -31z"/>
<path d="M20399 30609 c-241 -26 -497 -195 -567 -374 -19 -48 -21 -50 -68 -59
-211 -37 -326 -87 -425 -185 -69 -69 -115 -146 -143 -240 -22 -75 -21 -249 2
-316 25 -73 45 -72 131 9 76 72 134 96 226 96 54 0 175 -27 238 -53 l36 -15
-15 -48 c-55 -184 -190 -475 -299 -649 -72 -113 -207 -293 -283 -375 l-58 -63
-104 69 c-115 75 -163 119 -565 514 -332 327 -437 410 -643 514 -108 54 -207
90 -337 122 -183 46 -478 44 -836 -7 -224 -31 -550 -67 -804 -88 -704 -59
-1183 -50 -2209 39 -186 17 -343 30 -347 30 -23 0 -49 -42 -49 -77 0 -97 98
-216 236 -289 77 -41 230 -97 300 -110 46 -8 51 -21 22 -52 -48 -52 -58 -75
-58 -131 0 -101 59 -179 182 -242 68 -34 200 -74 281 -84 31 -4 59 -11 62 -14
2 -4 -7 -23 -20 -43 -36 -53 -47 -107 -34 -166 35 -164 222 -256 559 -275 39
-2 45 -5 42 -22 -15 -112 -14 -121 8 -168 58 -123 196 -177 451 -177 64 0 118
-3 121 -6 4 -3 -1 -26 -9 -50 -20 -59 -10 -119 29 -178 38 -59 85 -91 168
-117 70 -22 181 -27 263 -11 26 5 47 6 47 1 0 -4 -5 -31 -11 -58 -13 -64 6
-139 51 -193 64 -77 210 -122 319 -99 29 6 56 9 61 6 5 -3 0 -30 -11 -60 -33
-94 -20 -160 48 -235 82 -91 202 -110 346 -55 15 6 17 0 17 -66 0 -61 5 -82
28 -124 32 -58 96 -110 155 -126 65 -17 156 -7 217 24 28 15 56 27 61 27 5 0
9 -25 9 -55 0 -94 48 -173 132 -216 81 -42 185 -30 276 32 24 16 45 29 48 29
2 0 4 -13 4 -28 0 -80 61 -197 119 -227 17 -8 54 -15 84 -15 72 0 140 35 212
111 58 61 74 64 75 16 0 -31 30 -91 62 -124 60 -62 137 -66 220 -14 60 38 109
101 154 194 35 75 37 77 58 62 48 -35 97 -55 133 -55 84 1 187 73 259 182 26
38 50 66 54 61 4 -4 15 -27 24 -51 l16 -44 -51 -46 c-29 -25 -113 -116 -187
-202 -292 -334 -543 -547 -880 -749 -67 -40 -124 -81 -127 -91 -7 -23 9 -56
35 -70 10 -6 46 -13 80 -17 33 -3 60 -9 60 -13 0 -4 -48 -30 -107 -58 -123
-57 -279 -100 -399 -109 l-81 -6 -149 68 c-292 132 -376 159 -452 145 -55 -10
-82 -26 -129 -78 l-42 -47 -47 24 c-25 14 -48 31 -51 38 -3 7 27 77 66 156 39
78 82 176 95 217 76 235 84 465 20 598 -40 83 -75 69 -138 -56 -98 -195 -176
-534 -176 -767 0 -37 -4 -65 -8 -63 -28 11 -161 115 -161 126 -1 6 21 60 47
120 86 191 128 344 153 564 23 212 -34 440 -108 426 -10 -2 -34 -30 -54 -63
-102 -170 -175 -476 -186 -782 -3 -84 -9 -153 -13 -153 -4 0 -42 33 -86 74
l-79 74 58 169 c70 206 96 333 104 526 8 188 -6 290 -53 387 -27 58 -37 70
-57 70 -43 0 -76 -56 -127 -215 -80 -250 -108 -513 -75 -695 7 -41 11 -77 9
-79 -7 -7 -36 23 -116 118 -54 64 -77 99 -73 110 23 59 79 275 97 371 27 155
30 405 5 504 -29 116 -83 206 -123 206 -39 0 -101 -165 -128 -340 -16 -102
-27 -309 -22 -408 5 -89 3 -113 -6 -110 -7 3 -39 45 -70 94 -66 104 -67 112
-38 283 57 334 42 538 -54 716 -29 55 -52 85 -75 99 l-33 19 -19 -24 c-48 -61
-76 -259 -62 -426 14 -160 -1 -139 -56 83 -39 155 -83 279 -132 374 -92 179
-295 375 -330 319 -28 -46 -17 -281 21 -419 31 -113 119 -281 210 -404 45 -59
79 -110 76 -113 -3 -3 -49 32 -103 77 -113 94 -236 160 -357 190 -172 43 -211
16 -144 -100 80 -140 295 -305 568 -436 256 -123 241 -113 279 -177 18 -32 31
-60 29 -63 -3 -2 -54 23 -114 56 -215 119 -324 150 -539 150 -123 0 -156 -3
-184 -18 -19 -9 -37 -23 -39 -30 -9 -27 90 -101 227 -171 223 -112 427 -169
741 -208 l65 -8 52 -70 c29 -38 50 -71 48 -73 -2 -2 -52 12 -111 33 -211 72
-414 98 -604 76 -180 -20 -270 -57 -244 -99 30 -48 206 -126 391 -173 189 -48
324 -62 528 -56 99 3 187 8 195 12 11 4 34 -16 73 -61 32 -37 56 -69 53 -71
-2 -3 -49 5 -103 16 -210 43 -392 48 -583 15 -217 -38 -326 -103 -259 -155 37
-28 177 -76 291 -100 91 -18 128 -20 318 -16 213 4 216 5 360 44 l145 39 84
-70 84 -71 -159 -6 c-252 -10 -443 -53 -618 -141 -83 -41 -196 -115 -196 -129
0 -4 10 -19 23 -33 38 -44 126 -59 307 -53 240 8 415 56 644 176 65 33 124 61
133 61 18 0 153 -89 153 -101 0 -5 -13 -9 -28 -9 -76 0 -312 -80 -474 -160
-170 -85 -309 -193 -349 -273 l-20 -37 28 -12 c110 -44 374 7 590 116 124 62
266 159 343 233 35 35 67 63 71 63 3 0 13 -8 22 -18 15 -16 13 -22 -16 -81
-27 -54 -31 -75 -31 -135 0 -69 21 -131 59 -176 7 -8 15 -49 17 -90 6 -90 29
-140 89 -194 68 -62 140 -90 234 -90 70 -1 88 3 145 31 36 17 90 52 120 77 30
25 58 46 62 46 21 0 108 -125 148 -214 54 -117 64 -175 64 -366 1 -99 -5 -218
-13 -273 l-14 -99 29 -23 c59 -47 146 -54 216 -19 53 27 82 215 59 389 -29
222 -101 399 -222 549 -39 48 -69 89 -67 91 1 1 42 25 91 53 75 43 103 53 200
71 61 11 184 38 272 60 88 22 162 38 164 35 2 -2 -4 -30 -13 -62 -21 -76 -26
-123 -15 -144 14 -26 75 -41 143 -35 l61 6 58 -80 c69 -96 108 -124 146 -104
41 21 577 608 762 834 52 63 99 116 105 118 7 2 11 -29 12 -94 1 -54 3 -109 4
-123 2 -18 -84 -156 -323 -515 -379 -571 -440 -668 -520 -820 -109 -208 -132
-315 -86 -405 51 -103 171 -102 326 1 32 22 34 22 29 4 -3 -11 -17 -60 -32
-109 -61 -207 -55 -332 20 -401 21 -20 38 -25 76 -25 67 0 118 28 209 116 41
41 78 72 81 69 3 -4 0 -26 -8 -51 -21 -69 -34 -228 -24 -288 23 -145 100 -206
203 -162 55 23 134 93 193 171 31 41 59 75 63 75 3 0 6 -75 6 -168 0 -159 1
-170 26 -222 48 -101 106 -135 186 -110 50 17 183 152 243 247 25 40 50 73 56
73 6 0 18 -33 28 -73 52 -220 203 -487 324 -571 38 -26 42 -27 69 -13 60 32
168 169 230 292 43 85 99 239 114 313 7 34 16 62 21 62 4 0 36 -44 71 -97 71
-107 166 -205 221 -228 84 -35 153 -6 192 80 35 75 50 205 38 323 -5 50 -7 92
-3 92 4 0 25 -24 48 -53 54 -70 157 -169 199 -191 42 -22 105 -23 136 -3 13 9
34 33 47 54 21 34 24 52 27 163 2 83 -1 148 -11 195 -8 39 -13 72 -11 74 2 2
35 -26 74 -62 84 -80 134 -107 194 -107 33 0 52 6 76 26 82 70 89 192 24 407
-15 48 -25 90 -22 92 3 3 27 -8 54 -24 62 -39 151 -62 196 -52 80 18 112 61
116 157 9 167 -98 345 -875 1467 l-124 178 12 62 c6 34 8 89 4 122 -7 70 -15
76 105 -70 119 -144 259 -301 466 -525 293 -316 286 -310 318 -310 33 0 84 48
141 133 l35 52 73 0 c60 0 78 4 105 24 31 22 33 25 27 70 -4 25 -13 67 -20 93
-7 25 -11 48 -9 51 3 2 73 -13 157 -34 84 -21 193 -45 242 -54 123 -22 151
-32 215 -75 30 -21 79 -49 108 -64 28 -14 52 -30 52 -35 0 -5 -24 -45 -52 -88
l-53 -78 -55 -1 c-36 0 -70 -8 -99 -23 -24 -13 -136 -112 -256 -229 l-214
-206 15 -27 c20 -39 24 -40 100 -30 38 6 70 8 73 5 2 -2 -6 -33 -18 -68 -26
-74 -25 -113 4 -132 19 -12 31 -9 108 28 48 23 89 39 92 36 3 -3 -2 -53 -11
-112 l-16 -106 23 -20 c13 -10 29 -19 35 -20 16 0 95 55 128 89 17 17 35 31
42 31 6 0 14 -19 18 -42 4 -24 14 -73 22 -110 21 -94 40 -93 132 8 39 41 72
71 76 66 3 -5 10 -30 16 -57 16 -71 50 -144 73 -157 17 -9 24 -7 38 11 50 61
129 407 136 597 5 119 5 123 -21 160 -31 47 -33 89 -10 240 16 100 18 105 38
99 11 -4 56 -9 98 -12 70 -5 83 -3 133 21 102 50 155 141 155 264 0 55 5 72
30 111 29 45 37 50 475 264 246 120 453 216 461 213 8 -3 14 -12 14 -20 0 -33
43 -126 59 -126 22 0 79 81 197 282 68 116 98 175 90 180 -17 12 -315 9 -403
-3 -79 -11 -124 -26 -130 -44 -2 -6 19 -37 47 -70 27 -33 50 -64 50 -68 0 -9
-819 -417 -836 -417 -5 0 -21 18 -37 39 l-27 39 207 204 c257 253 566 548 573
548 3 0 18 -20 34 -45 36 -58 62 -73 82 -48 17 22 60 132 125 316 l49 137 -30
0 c-95 0 -431 -92 -467 -128 -15 -15 -12 -20 41 -68 31 -28 56 -53 56 -55 0
-2 -170 -177 -378 -388 l-378 -384 -52 17 c-29 10 -52 21 -52 25 0 10 48 87
210 336 159 246 337 523 365 573 21 35 36 40 56 16 19 -23 70 -47 79 -37 25
26 130 394 130 456 0 31 -407 -116 -483 -174 -16 -13 -16 -16 -1 -37 8 -12 38
-34 65 -47 27 -14 49 -31 49 -38 0 -28 -157 -289 -482 -802 -150 -236 -162
-201 -55 155 41 135 83 278 93 318 l19 74 30 -7 c16 -4 36 -8 44 -8 16 -2 15
-5 55 188 23 109 60 239 91 318 10 25 -5 22 -99 -23 -152 -73 -375 -232 -407
-292 -8 -14 -3 -21 28 -37 21 -10 58 -24 82 -31 43 -11 43 -12 36 -48 -7 -40
-134 -525 -166 -634 -19 -65 -21 -67 -57 -73 -76 -13 -140 -38 -257 -103 -111
-62 -124 -67 -175 -65 -70 2 -194 27 -290 59 -78 26 -210 98 -210 114 0 6 17
10 38 10 20 0 56 9 80 20 37 17 42 23 42 53 0 41 -8 49 -125 117 -315 184
-567 396 -874 738 -82 92 -170 183 -195 202 -25 19 -45 43 -46 52 0 9 9 38 21
65 l21 48 36 -65 c104 -185 286 -256 387 -150 16 17 32 30 36 30 3 0 14 -21
24 -47 54 -146 152 -248 256 -268 75 -14 166 52 190 137 6 24 13 49 15 57 3 9
26 -7 69 -48 74 -71 131 -100 197 -101 112 0 182 69 207 204 6 33 12 61 14 62
1 2 24 -10 50 -27 120 -74 235 -74 322 3 57 50 84 101 91 175 4 32 8 59 9 61
2 2 27 -9 57 -24 109 -55 236 -42 320 34 55 50 80 104 86 185 4 56 8 67 20 62
198 -76 408 53 389 239 -3 30 -13 68 -22 86 -9 17 -14 34 -11 37 3 3 35 0 71
-7 118 -22 216 4 298 79 65 60 91 127 83 209 l-7 64 48 -7 c190 -29 363 28
429 142 24 40 26 51 21 116 -2 40 -8 79 -11 88 -6 15 10 17 151 22 182 6 261
25 335 81 82 63 108 139 85 247 l-7 35 137 12 c210 18 316 53 396 130 95 91
110 199 40 302 -28 42 -32 39 101 64 173 33 311 105 379 197 25 34 32 55 35
104 4 68 -10 108 -56 157 -19 21 -22 29 -11 32 8 3 63 21 123 41 60 19 145 54
189 77 181 94 291 255 233 342 -9 14 -20 26 -25 26 -4 0 -131 -11 -282 -25
-1265 -113 -1807 -107 -2949 35 -353 44 -482 53 -688 48 -168 -5 -199 -8 -302
-36 -354 -95 -524 -207 -960 -637 -277 -273 -474 -450 -491 -439 -15 9 -124
147 -168 212 -55 82 -160 298 -209 432 -21 58 -65 188 -97 290 -148 474 -259
712 -401 862 -30 31 -54 63 -54 70 0 8 18 32 40 53 75 73 50 100 -142 154
-208 58 -394 78 -559 60z m342 -95 c104 -17 274 -66 274 -78 0 -5 -24 -23 -52
-40 -29 -17 -54 -34 -55 -37 -2 -4 24 -27 57 -52 170 -128 274 -332 465 -906
48 -146 105 -309 125 -361 78 -197 185 -388 301 -536 35 -46 64 -85 64 -89 0
-11 -140 -96 -232 -140 -113 -55 -211 -80 -354 -94 -280 -26 -533 40 -770 200
l-71 47 -64 -45 c-318 -222 -765 -272 -1096 -123 -59 27 -78 50 -54 65 20 12
227 293 297 401 115 181 229 419 319 667 l35 99 -29 27 c-18 17 -69 42 -128
62 -92 31 -106 33 -225 32 -71 0 -128 3 -128 8 0 16 93 78 142 95 43 14 71 16
167 9 196 -12 186 -13 189 13 2 13 -2 29 -8 37 -18 22 -137 38 -250 33 -88 -3
-114 -8 -161 -31 -68 -33 -135 -90 -184 -157 -20 -28 -41 -50 -47 -50 -14 0 0
113 24 184 24 74 77 155 130 200 90 77 250 136 370 136 71 0 98 12 98 44 0
107 114 235 284 318 176 87 322 102 567 62z m-168 -2984 l217 0 -2 -1032 -3
-1032 -105 -63 c-58 -34 -124 -70 -146 -79 -40 -15 -43 -15 -93 10 -28 15 -89
49 -136 76 l-85 51 0 1041 0 1041 68 -6 c37 -4 165 -7 285 -7z m-703 -875 c0
-540 -4 -875 -9 -875 -15 0 -147 164 -214 265 -136 205 -260 510 -312 768 -34
171 -45 299 -45 523 l0 194 290 0 290 0 0 -875z m1837 858 c12 -30 -16 -473
-37 -593 -75 -428 -260 -834 -503 -1105 l-36 -40 -1 878 0 877 285 0 c259 0
286 -2 292 -17z m2018 -3380 c-6 -35 -72 -222 -81 -232 -8 -9 -54 23 -54 36 0
21 124 233 136 233 4 0 3 -17 -1 -37z m108 -120 c-6 -71 -23 -185 -28 -193 -7
-11 -56 1 -62 16 -3 7 10 50 27 96 18 46 36 93 41 106 15 38 27 24 22 -25z"/>
<path d="M20293 30180 c-38 -23 -63 -67 -63 -112 0 -28 8 -39 42 -66 84 -65
153 -64 223 3 43 40 45 69 6 122 -51 70 -142 94 -208 53z"/>
<path d="M28566 26894 c-54 -85 -97 -156 -95 -158 2 -1 109 -70 238 -152 129
-82 238 -152 244 -155 8 -6 -1137 -1814 -1375 -2171 -54 -81 -98 -151 -97
-155 0 -9 688 -448 693 -442 1 2 38 63 81 134 106 174 1671 2630 1785 2800
l89 133 -213 136 -213 135 -54 -18 c-182 -64 -494 -50 -862 40 -65 16 -119 29
-120 29 -1 0 -46 -70 -101 -156z"/>
<path d="M11620 27005 c-358 -59 -754 -287 -954 -548 -121 -158 -172 -316
-163 -502 9 -187 68 -375 208 -665 96 -198 510 -997 622 -1200 154 -280 294
-469 424 -573 89 -71 141 -100 238 -133 105 -35 285 -44 422 -20 373 65 789
314 971 583 197 291 190 572 -26 1050 -62 138 -583 1144 -690 1333 -231 409
-424 598 -677 665 -85 22 -272 28 -375 10z m6 -630 c87 -36 162 -121 261 -295
74 -129 740 -1410 799 -1535 92 -198 110 -320 59 -414 -33 -60 -86 -102 -165
-132 -143 -54 -267 15 -392 217 -52 84 -633 1192 -792 1511 -90 180 -126 278
-133 363 -8 97 9 145 71 206 85 83 205 115 292 79z"/>
<path d="M30610 26119 c-155 -40 -286 -123 -425 -271 -74 -78 -185 -225 -185
-245 0 -7 615 -402 639 -411 4 -1 34 37 66 85 111 167 215 253 307 253 86 0
210 -75 248 -150 49 -97 12 -207 -153 -455 -70 -104 -184 -222 -242 -251 -29
-14 -60 -19 -115 -18 -88 0 -135 19 -275 108 -49 31 -91 56 -94 56 -5 0 -203
-307 -278 -431 l-23 -37 108 -70 c127 -83 212 -169 236 -238 46 -136 -4 -293
-178 -558 -93 -141 -167 -223 -238 -261 -102 -57 -222 -34 -330 63 -125 113
-100 279 85 550 16 24 25 47 21 51 -5 4 -153 99 -328 211 -301 191 -320 201
-333 184 -71 -95 -190 -350 -224 -482 -25 -93 -30 -270 -10 -352 21 -86 92
-227 159 -317 202 -267 603 -513 927 -570 108 -18 289 -13 380 12 194 52 375
191 525 404 199 280 280 481 280 696 0 151 -33 257 -119 384 -23 33 -41 63
-41 66 0 4 46 3 103 0 134 -8 241 11 345 61 187 92 420 398 511 671 129 385
-28 755 -442 1041 -157 108 -347 193 -511 226 -108 23 -300 20 -396 -5z"/>
<path d="M9410 25843 c-282 -25 -649 -201 -861 -413 -189 -189 -279 -398 -279
-650 0 -175 47 -367 133 -541 l42 -87 337 177 c185 97 339 179 342 182 4 3
-16 53 -43 110 -97 205 -121 354 -73 445 47 91 153 154 256 154 118 -1 219
-93 316 -288 124 -249 147 -569 75 -1050 -14 -90 -86 -475 -161 -855 l-137
-692 114 -218 c63 -119 118 -218 122 -219 14 -2 1907 986 1907 996 0 13 -243
476 -250 476 -3 0 -251 -128 -551 -283 -299 -156 -545 -281 -547 -277 -1 4 43
229 99 501 174 852 183 915 183 1264 1 221 -2 263 -22 363 -80 396 -296 704
-586 837 -119 54 -279 81 -416 68z"/>
<path d="M20475 21107 c-34 -143 -413 -1842 -412 -1843 1 -1 101 -3 221 -5
l219 -4 36 189 36 189 175 -2 c96 -1 178 -5 181 -9 4 -4 19 -90 34 -192 15
-102 28 -186 28 -186 6 -4 437 -11 437 -7 0 9 -341 1877 -343 1879 -1 1 -138
4 -304 8 l-303 6 -5 -23z m324 -519 c7 -73 30 -251 52 -396 21 -145 39 -266
39 -269 0 -7 -248 2 -256 9 -3 3 18 124 46 269 45 232 90 489 90 512 0 4 4 7
8 7 5 0 14 -60 21 -132z"/>
<path d="M18770 21073 c-182 -31 -338 -117 -421 -232 -107 -149 -107 -378 1
-538 79 -119 159 -180 450 -344 152 -85 197 -116 256 -174 77 -77 102 -132 91
-202 -15 -93 -121 -156 -224 -132 -71 15 -140 91 -169 184 -11 35 -23 55 -33
55 -17 0 -369 -59 -388 -65 -17 -6 8 -93 53 -185 107 -217 345 -326 637 -291
273 32 454 135 537 305 31 61 35 81 38 167 4 79 0 111 -17 166 -29 95 -85 185
-158 254 -81 75 -140 114 -353 234 -255 143 -305 181 -341 260 -52 113 2 222
118 241 87 14 164 -45 198 -151 9 -30 19 -55 22 -55 8 0 366 60 390 65 22 5
22 6 6 58 -56 190 -196 330 -374 372 -60 14 -255 19 -319 8z"/>
<path d="M22216 20978 c-9 -84 -255 -1703 -265 -1750 -10 -44 -37 -34 214 -73
226 -35 211 -38 219 38 4 34 34 238 66 452 32 215 62 434 66 488 4 53 10 97
14 97 3 0 16 -48 29 -107 22 -109 288 -1051 301 -1066 7 -8 382 -68 388 -62 2
1 14 78 27 171 33 234 222 1479 241 1588 8 48 14 90 12 92 -4 3 -394 64 -414
64 -7 0 -16 -32 -23 -82 -7 -46 -32 -216 -56 -378 -41 -268 -64 -454 -65 -519
0 -47 -14 -9 -37 102 -17 87 -248 936 -256 943 -4 4 -413 64 -433 64 -19 0
-22 -8 -28 -62z"/>
<path d="M24234 20544 c-23 -82 -34 -138 -28 -143 5 -4 79 -27 164 -51 85 -23
160 -45 167 -49 8 -4 -50 -219 -187 -701 -108 -382 -206 -724 -218 -760 -11
-36 -19 -66 -17 -68 3 -3 417 -122 426 -122 4 0 14 30 23 68 20 79 407 1444
412 1453 2 3 81 -16 176 -42 95 -27 175 -45 179 -41 7 7 80 265 76 268 -1 1
-252 72 -557 158 -305 87 -560 159 -566 161 -7 2 -26 -48 -50 -131z"/>
<path d="M16177 20569 c-160 -23 -324 -99 -427 -195 -162 -153 -199 -352 -104
-553 76 -161 213 -254 549 -371 226 -78 310 -117 365 -166 79 -71 103 -176 58
-244 -47 -69 -173 -104 -245 -67 -42 22 -91 74 -125 135 -16 28 -33 52 -36 52
-4 0 -91 -30 -194 -67 -123 -44 -188 -72 -188 -81 0 -31 69 -140 127 -202 78
-83 148 -125 253 -151 198 -50 477 14 676 156 155 111 227 282 191 456 -36
180 -136 302 -328 403 -46 24 -183 78 -304 121 -304 107 -353 134 -394 218
-42 87 -19 187 52 220 108 52 190 21 255 -94 15 -27 33 -49 39 -49 13 0 373
127 381 134 11 12 -78 154 -128 206 -119 120 -280 167 -473 139z"/>
<path d="M26195 19986 c-115 -37 -198 -109 -279 -244 -53 -89 -316 -704 -372
-870 -103 -303 -52 -487 176 -642 218 -148 505 -201 670 -124 36 17 83 46 103
64 49 43 138 177 186 281 82 177 301 718 326 804 50 172 43 301 -22 413 -103
176 -418 333 -662 331 -47 0 -104 -6 -126 -13z m347 -347 c69 -35 88 -113 53
-219 -23 -71 -329 -808 -365 -880 -35 -68 -70 -107 -115 -126 -38 -16 -69 -12
-126 17 -94 47 -96 124 -12 334 141 348 326 775 355 816 58 86 120 103 210 58z"/>
<path d="M14397 19939 c-192 -28 -429 -151 -525 -272 -101 -126 -120 -243 -71
-437 24 -96 35 -125 191 -490 149 -349 212 -477 277 -557 98 -122 190 -166
346 -167 123 0 217 24 360 93 276 132 387 307 346 545 -19 108 -64 228 -220
592 -168 390 -211 472 -298 564 -109 117 -229 155 -406 129z m33 -357 c50 -36
90 -116 268 -533 197 -461 219 -525 202 -588 -20 -75 -113 -125 -189 -102 -47
14 -81 51 -125 140 -42 84 -319 730 -357 834 -45 121 -36 201 27 242 60 39
127 42 174 7z"/>
<path d="M27919 19117 c-123 -42 -203 -116 -267 -246 l-37 -75 0 -135 c0 -168
12 -210 132 -471 134 -289 158 -376 134 -468 -16 -58 -73 -119 -123 -132 -85
-23 -204 50 -228 140 -13 50 -8 110 16 183 9 27 14 50 12 52 -8 8 -359 175
-368 175 -15 0 -48 -103 -60 -187 -34 -229 77 -434 315 -582 170 -106 364
-157 506 -133 151 26 261 112 332 259 l42 88 0 140 c-1 172 -12 211 -149 508
-94 202 -136 316 -136 366 0 82 61 172 131 192 76 23 177 -38 199 -120 10 -40
1 -106 -25 -173 -6 -14 27 -34 184 -112 l190 -96 22 68 c26 84 35 218 20 294
-39 188 -224 366 -468 451 -73 25 -107 31 -198 34 -95 3 -119 1 -176 -20z"/>
<path d="M12345 18914 c-99 -58 -186 -109 -193 -113 -10 -6 -1 -29 40 -97 64
-104 799 -1379 849 -1471 20 -38 39 -61 47 -58 17 6 795 455 805 464 9 9 -126
247 -139 244 -5 -1 -103 -56 -218 -122 -115 -67 -213 -118 -217 -114 -7 8
-684 1182 -753 1306 -20 37 -38 67 -39 66 -1 0 -83 -47 -182 -105z"/>
<path d="M17840 15724 c-19 -2 -78 -9 -130 -15 -185 -21 -453 -81 -655 -146
-424 -136 -909 -399 -1282 -695 -40 -32 -77 -58 -82 -58 -5 0 -82 36 -171 80
-613 300 -989 393 -1530 377 -376 -11 -688 -69 -1073 -198 -742 -249 -1492
-724 -2299 -1457 l-127 -115 21 -41 c11 -23 32 -60 45 -83 l25 -43 58 53 c361
327 506 450 740 626 849 641 1617 982 2395 1061 161 17 486 15 646 -4 358 -43
583 -127 1344 -506 275 -136 601 -294 725 -350 960 -436 2017 -824 3045 -1119
265 -76 593 -161 620 -161 34 0 85 50 85 84 0 33 -17 69 -39 83 -10 6 -99 32
-197 58 -370 97 -1233 355 -1277 382 -20 12 190 97 368 148 457 131 922 122
1359 -26 116 -40 346 -150 456 -219 127 -79 261 -185 392 -309 134 -126 156
-135 209 -82 59 59 33 111 -131 259 -380 345 -807 551 -1295 627 -143 23 -416
30 -565 16 -330 -31 -723 -150 -985 -296 l-63 -35 -249 89 c-761 272 -1541
600 -2148 903 l-199 100 29 25 c248 201 678 449 1003 578 578 227 1213 288
1772 169 352 -75 730 -225 1225 -486 127 -66 511 -277 855 -468 590 -328 1077
-594 1361 -744 69 -36 138 -66 153 -66 38 0 86 49 86 88 0 16 -9 41 -20 55
-11 14 -98 67 -193 118 -361 193 -722 391 -731 399 -19 19 310 216 556 334
408 196 828 315 1293 368 160 18 608 15 770 -5 608 -76 1122 -261 1638 -590
43 -27 75 -53 70 -58 -13 -13 -450 -214 -677 -311 -748 -321 -1527 -546 -2344
-679 -177 -28 -188 -31 -214 -60 -38 -40 -37 -82 1 -120 36 -36 43 -36 235 -4
695 117 1301 275 1912 500 308 114 493 193 1034 442 581 269 816 360 1115 433
490 120 976 115 1495 -16 658 -165 1306 -534 1968 -1119 73 -65 137 -114 141
-109 5 5 25 42 46 82 37 72 38 74 19 91 -250 230 -534 453 -809 634 -582 383
-1148 604 -1750 682 -172 23 -491 30 -660 16 -393 -34 -781 -141 -1222 -335
l-82 -36 -143 94 c-556 365 -1120 571 -1783 648 -145 17 -674 17 -815 -1 -681
-83 -1282 -305 -1849 -683 -123 -83 -136 -89 -160 -78 -14 6 -246 134 -516
284 -540 302 -796 439 -985 529 -462 220 -804 332 -1190 392 -100 15 -584 29
-670 19z"/>
<path d="M11855 11190 c662 -1010 1427 -2016 2248 -2957 l212 -243 1024 3
1024 2 458 1080 458 1080 3201 0 3201 0 458 -1080 458 -1080 1024 -3 1025 -2
190 217 c865 992 1687 2076 2337 3086 l57 87 -8750 0 -8749 0 124 -190z"/>
<path d="M17074 8940 l-482 -805 485 -3 c266 -1 700 -1 963 0 l478 3 -165 275
c-91 151 -308 514 -482 805 l-316 530 -481 -805z"/>
<path d="M17972 9728 c38 -58 938 -1567 944 -1582 4 -10 162 246 471 762 255
427 474 792 485 810 l20 32 -967 0 -967 0 14 -22z"/>
<path d="M19994 8940 l-482 -805 485 -3 c266 -1 700 -1 963 0 l478 3 -165 275
c-91 151 -308 514 -482 805 l-316 530 -481 -805z"/>
<path d="M21072 9728 c38 -58 938 -1567 944 -1582 4 -10 162 246 471 762 255
427 474 792 485 810 l20 32 -967 0 -967 0 14 -22z"/>
<path d="M22894 8940 l-482 -805 485 -3 c266 -1 700 -1 963 0 l478 3 -165 275
c-91 151 -308 514 -482 805 l-316 530 -481 -805z"/>
<path d="M14840 7423 c125 -138 609 -629 845 -857 1270 -1225 2526 -2240 3970
-3206 291 -194 701 -459 790 -509 l40 -23 165 104 c1586 1003 2976 2079 4360
3377 203 190 1044 1032 1108 1109 l44 52 -5682 0 -5683 0 43 -47z m4860 -718
c239 -63 391 -220 452 -468 12 -48 18 -90 14 -94 -6 -7 -344 -32 -442 -33
l-51 0 -7 48 c-13 97 -78 192 -142 208 -13 4 -53 5 -87 2 -110 -7 -161 -67
-162 -188 0 -125 55 -190 316 -374 253 -179 334 -243 411 -325 128 -136 185
-261 195 -423 18 -287 -147 -494 -462 -580 -69 -19 -106 -22 -270 -22 -179 0
-195 2 -280 28 -174 53 -290 135 -375 266 -41 64 -92 207 -104 291 l-7 46 63
6 c145 14 419 30 424 25 3 -3 12 -34 20 -67 16 -71 51 -144 87 -183 99 -106
309 -79 357 47 7 17 12 56 12 88 0 131 -76 217 -397 444 -313 223 -417 333
-482 511 -31 81 -41 228 -23 315 47 229 247 395 537 447 77 14 328 5 403 -15z
m2141 -17 c0 -2 100 -496 222 -1098 l223 -1095 -255 -3 c-140 -1 -256 0 -258
2 -3 2 -21 104 -41 225 l-37 221 -210 0 -210 0 -28 -162 c-15 -90 -32 -191
-38 -225 l-11 -63 -260 0 -260 0 5 23 c3 12 103 501 222 1087 119 586 218
1071 220 1078 3 9 84 12 360 12 195 0 355 -1 356 -2z"/>
<path d="M21477 6189 c-3 -19 -11 -72 -17 -119 -10 -74 -111 -687 -126 -762
l-6 -28 151 0 c137 0 151 2 151 18 0 9 -22 148 -49 307 -27 160 -57 358 -66
440 -19 163 -29 198 -38 144z"/>
</g>
</svg>
