<?xml version="1.0" standalone="no"?>
<!DOCTYPE svg PUBLIC "-//W3C//DTD SVG 20010904//EN"
 "http://www.w3.org/TR/2001/REC-SVG-20010904/DTD/svg10.dtd">
<svg version="1.0" xmlns="http://www.w3.org/2000/svg"
 width="1024.000000pt" height="1024.000000pt" viewBox="0 0 1024.000000 1024.000000"
 preserveAspectRatio="xMidYMid meet">

<g transform="translate(0.000000,1024.000000) scale(0.100000,-0.100000)"
fill="#000000" stroke="none">
<path d="M4897 9174 c-4 -4 -30 -7 -57 -5 -30 1 -50 -2 -50 -8 0 -6 -12 -8
-28 -5 -71 14 -721 -103 -698 -126 2 -3 -8 -5 -24 -6 -39 -1 -240 -65 -235
-75 3 -4 -5 -5 -17 -1 -16 4 -19 2 -13 -8 5 -9 4 -11 -4 -6 -14 9 -183 -53
-176 -64 7 -11 -22 -20 -42 -13 -12 5 -14 3 -8 -7 5 -9 4 -11 -4 -6 -16 10
-142 -44 -134 -57 3 -6 1 -7 -5 -4 -15 10 -43 -3 -35 -16 3 -6 1 -7 -5 -3 -15
9 -183 -76 -374 -191 -128 -76 -157 -98 -148 -109 7 -7 8 -19 4 -26 -5 -7 5
-4 21 6 17 11 40 26 52 34 13 8 20 19 16 25 -3 5 -2 7 4 4 6 -4 61 23 124 59
267 153 615 309 870 388 245 76 567 141 804 162 50 5 72 10 60 14 -23 8 667 5
705 -3 14 -3 75 -11 135 -17 173 -17 191 -20 345 -51 289 -59 563 -146 838
-266 106 -46 220 -100 255 -120 34 -19 96 -53 137 -76 93 -50 277 -169 391
-253 48 -35 91 -64 97 -64 6 0 12 -4 14 -9 2 -4 51 -48 109 -97 183 -154 306
-274 428 -419 240 -285 414 -536 531 -765 23 -47 58 -112 76 -145 43 -80 165
-383 209 -526 20 -63 54 -186 75 -274 21 -88 43 -178 49 -200 l10 -40 -1 50
c-1 28 2 58 6 67 18 40 -101 456 -199 696 -114 283 -260 547 -447 815 -122
173 -347 443 -382 457 -11 5 -17 9 -13 9 27 2 -281 287 -453 418 -608 464
-1252 728 -2050 838 -126 18 -749 33 -763 19z m1010 -70 c-3 -3 -12 -4 -19 -1
-8 3 -5 6 6 6 11 1 17 -2 13 -5z m60 -10 c-3 -3 -12 -4 -19 -1 -8 3 -5 6 6 6
11 1 17 -2 13 -5z m1774 -811 c13 -16 12 -17 -3 -4 -10 7 -18 15 -18 17 0 8 8
3 21 -13z"/>
<path d="M4910 9043 c-350 -27 -693 -92 -995 -190 -727 -233 -1369 -668 -1858
-1258 -239 -287 -450 -641 -610 -1020 -130 -311 -221 -670 -268 -1060 -18
-146 -18 -634 -1 -780 44 -366 116 -660 239 -975 286 -733 805 -1377 1463
-1817 467 -313 984 -523 1540 -627 234 -44 374 -58 645 -63 485 -10 897 49
1353 193 370 117 792 329 1111 557 719 516 1227 1222 1481 2057 47 156 105
430 120 575 6 55 13 114 16 130 3 17 7 137 11 267 19 761 -169 1454 -575 2125
-285 470 -697 899 -1153 1201 -610 403 -1252 626 -1968 682 -125 9 -445 11
-551 3z m198 -284 l112 -151 0 151 0 151 85 0 85 0 0 -282 0 -283 -89 3 -88 3
-104 147 -104 146 -3 -152 -3 -152 -83 0 -83 0 -6 153 c-4 83 -10 209 -13 279
l-7 127 89 4 c49 1 91 4 94 5 3 1 56 -66 118 -149z m672 101 c63 -11 132 -24
152 -30 60 -17 130 -71 156 -120 21 -40 23 -55 20 -135 -8 -160 -76 -261 -193
-285 -58 -12 -78 -10 -355 39 -33 6 -35 9 -32 41 3 40 72 488 77 507 3 8 15
11 32 8 15 -3 80 -14 143 -25z m-1258 -197 c151 -218 219 -326 210 -334 -4 -4
-36 -12 -72 -18 -36 -7 -75 -15 -87 -18 -18 -4 -26 3 -43 36 -11 23 -26 41
-33 41 -6 0 -53 -10 -104 -22 l-92 -22 -3 -50 -3 -50 -87 -22 -88 -22 0 22 c1
11 18 147 38 301 l38 280 99 26 c55 15 101 27 102 28 1 0 57 -79 125 -176z
m2004 2 c202 -76 239 -97 270 -157 51 -98 -42 -228 -157 -220 -15 0 -14 -5 3
-51 13 -33 22 -88 25 -149 l6 -97 -89 38 c-97 42 -100 47 -103 135 0 22 -6 67
-12 100 -8 51 -15 63 -36 73 -15 7 -27 12 -28 10 -1 -1 -16 -40 -34 -87 -52
-133 -39 -124 -128 -91 -42 15 -79 33 -80 38 -2 5 19 70 47 144 29 74 72 189
97 257 37 100 49 122 62 117 9 -4 79 -30 157 -60z m-2948 -305 c49 -91 108
-199 130 -240 l41 -75 -78 -43 -78 -42 -99 44 c-55 24 -129 58 -166 75 -37 17
-70 31 -72 31 -3 0 18 -39 46 -87 28 -49 62 -107 75 -129 l23 -42 -65 -41
c-37 -22 -70 -41 -75 -41 -4 0 -45 62 -91 138 -46 75 -111 181 -146 234 l-62
97 82 54 82 53 115 -51 c63 -29 139 -64 168 -79 30 -15 56 -26 57 -24 2 2 -28
61 -66 132 -39 70 -69 130 -67 132 16 15 144 80 150 75 4 -3 47 -80 96 -171z
m3612 -13 c63 -39 148 -93 187 -120 l73 -49 -30 -43 c-17 -24 -34 -47 -40 -50
-5 -3 -64 31 -130 76 -67 45 -122 80 -124 78 -19 -28 -36 -60 -36 -68 0 -5 48
-40 108 -77 59 -36 109 -68 111 -70 2 -2 -34 -56 -60 -87 -6 -8 -52 17 -161
86 -31 21 -59 37 -62 37 -3 0 -17 -18 -32 -41 -30 -48 -40 -37 114 -130 57
-34 105 -66 108 -70 5 -8 -54 -109 -63 -109 -3 0 -73 42 -157 93 -83 52 -169
105 -190 118 -22 13 -44 27 -49 31 -9 5 48 108 240 430 40 67 18 71 193 -35z
m-1618 -181 c409 -59 746 -166 1094 -345 308 -160 518 -315 780 -576 190 -190
264 -277 400 -475 76 -111 234 -386 234 -408 0 -7 -7 -24 -16 -38 l-17 -25
-23 39 c-41 69 -56 59 -23 -15 l29 -65 -42 -77 c-23 -42 -63 -111 -89 -154
-27 -43 -53 -95 -60 -115 -6 -20 -15 -41 -19 -45 -5 -6 -92 31 -107 47 -2 2
10 28 28 57 53 90 89 172 89 205 0 43 -34 82 -94 110 -102 48 -128 33 -218
-121 -39 -66 -74 -124 -78 -128 -4 -5 -30 -1 -59 9 -30 9 -64 14 -81 10 l-31
-6 8 68 c10 87 10 756 -1 844 l-7 66 -67 35 c-359 188 -803 344 -1212 427
-787 158 -1601 83 -2397 -219 -128 -49 -377 -162 -484 -221 l-57 -30 -8 -158
c-5 -86 -9 -291 -8 -454 1 -164 0 -298 -2 -298 -2 0 -43 46 -91 103 -89 105
-346 399 -391 449 l-25 28 45 67 c281 422 775 835 1260 1054 320 145 701 249
1004 274 38 3 83 8 100 11 17 2 125 5 240 5 115 1 203 3 197 6 -7 3 -13 9 -13
14 0 6 6 7 13 3 9 -5 9 -4 0 6 -9 9 -68 11 -260 7 -136 -2 -257 -7 -268 -10
-11 -2 -49 -8 -85 -12 -101 -11 -312 -53 -450 -90 -195 -53 -380 -119 -380
-137 0 -5 -6 -6 -12 -2 -10 6 -10 4 0 -8 11 -14 10 -17 -8 -23 -12 -4 -27 -2
-35 5 -25 21 -438 -205 -615 -337 -135 -101 -290 -238 -290 -256 0 -13 -23
-34 -46 -41 -21 -6 -102 -95 -123 -134 -6 -12 -9 -27 -6 -32 3 -6 -1 -10 -10
-10 -10 0 -13 -5 -9 -12 5 -9 2 -8 -9 1 -10 8 -19 12 -20 10 -2 -2 -25 -31
-52 -64 -28 -33 -41 -53 -30 -44 11 9 28 19 38 22 14 5 12 -1 -9 -28 -20 -26
-30 -33 -39 -25 -10 8 -21 0 -46 -32 -19 -23 -28 -39 -22 -35 9 6 11 3 7 -7
-3 -9 -10 -14 -14 -11 -10 6 -80 -84 -80 -102 0 -11 -4 -11 -22 -2 -13 6 -25
13 -26 15 -7 5 209 283 292 376 531 595 1261 967 2081 1062 159 19 598 14 747
-8z m-2425 -425 c18 -9 31 -19 30 -22 -1 -4 -32 -32 -70 -64 l-67 -58 -44 23
-43 24 -77 -69 c-42 -38 -76 -71 -76 -73 0 -1 9 -20 20 -42 l20 -39 -61 -58
c-33 -32 -64 -59 -69 -61 -9 -3 -42 74 -142 332 -39 100 -74 188 -79 196 -7
11 11 34 74 92 l82 76 235 -121 c129 -66 249 -128 267 -136z m4763 47 c0 -5
-7 -23 -16 -40 -9 -16 -58 -132 -110 -256 -51 -124 -98 -230 -104 -236 -7 -7
-31 10 -76 55 l-65 65 16 37 c8 20 15 41 15 46 0 5 -33 39 -74 76 l-75 66 -41
-21 c-23 -12 -46 -17 -54 -13 -24 15 -130 113 -125 117 7 7 261 124 410 189
l144 64 78 -70 c42 -38 77 -73 77 -79z m-5609 -279 c19 -7 36 -13 38 -15 2 -2
-22 -37 -53 -79 -51 -68 -58 -74 -76 -63 -25 16 -46 4 -78 -43 -28 -40 -26
-73 5 -77 15 -2 46 17 100 63 92 77 145 105 200 105 79 0 153 -84 153 -175 0
-79 -100 -229 -195 -293 -47 -32 -55 -34 -117 -30 -37 2 -73 9 -79 15 -7 7 1
29 30 77 23 36 41 71 41 77 0 7 7 8 18 4 60 -26 105 -6 137 61 13 28 15 42 6
60 -16 35 -41 30 -102 -23 -161 -137 -256 -160 -328 -78 -27 31 -31 43 -31 96
0 75 40 159 112 235 79 84 143 108 219 83z m5907 -78 c78 -40 179 -172 204
-264 13 -51 0 -108 -35 -150 l-22 -29 -56 74 c-51 67 -55 76 -43 93 23 31 16
65 -21 102 -29 29 -37 33 -55 23 -11 -6 -20 -15 -20 -21 0 -6 18 -58 41 -116
52 -133 57 -167 31 -226 -25 -56 -83 -90 -152 -90 -59 -1 -95 20 -164 90 -111
113 -151 235 -107 322 35 68 46 70 94 16 70 -80 71 -82 53 -110 -26 -39 -20
-70 22 -115 41 -43 62 -49 82 -25 16 19 9 53 -25 135 -39 91 -46 195 -16 243
39 64 119 84 189 48z m-2742 -6 c478 -30 1033 -180 1505 -407 l167 -80 7 -207
c33 -902 -136 -1696 -508 -2396 -113 -213 -237 -404 -419 -645 -230 -305 -615
-669 -967 -914 l-84 -59 -33 18 c-47 25 -351 263 -475 371 -214 188 -449 446
-636 701 -405 550 -670 1179 -782 1863 -55 332 -65 461 -65 845 0 193 3 366 7
385 6 32 15 40 75 72 279 150 761 315 1128 387 345 67 705 89 1080 66z m-2496
-189 c0 -2 -8 -10 -17 -17 -16 -13 -17 -12 -4 4 13 16 21 21 21 13z m-336
-378 c-9 -14 -23 2 -17 18 4 12 8 13 14 3 4 -7 5 -17 3 -21z m-225 -178 c19
-5 51 -21 72 -36 47 -33 473 -507 528 -589 21 -31 -35 30 -128 141 -214 253
-368 412 -429 443 -75 38 -135 23 -261 -66 -209 -147 -221 -155 -221 -134 0
21 284 214 350 237 43 16 47 16 89 4z m5900 -268 c45 -22 79 -68 63 -84 -8 -8
-14 -5 -21 13 -15 41 -121 101 -121 70 0 -6 -12 -17 -28 -26 -15 -9 -32 -26
-38 -38 -16 -33 -116 -213 -160 -288 -65 -111 -98 -158 -113 -164 -11 -4 -11
-2 -2 9 6 8 31 49 55 93 23 43 71 128 105 188 35 61 77 135 93 165 52 95 80
106 167 62z m-6382 -25 c-12 -13 -30 -26 -40 -30 -10 -4 -16 -11 -13 -15 3 -5
-16 -34 -42 -65 -27 -31 -65 -85 -86 -119 -35 -59 -37 -67 -32 -125 4 -46 2
-64 -9 -73 -21 -18 -19 -27 9 -34 26 -6 113 -100 261 -281 54 -66 154 -182
224 -257 162 -177 196 -218 181 -218 -10 0 -10 -4 0 -17 7 -10 -6 2 -29 25
-22 24 -40 47 -39 50 0 4 -67 76 -151 161 -83 85 -151 160 -151 167 0 7 -5 16
-12 20 -7 4 -8 3 -4 -4 11 -18 0 -14 -15 5 -10 11 -10 14 -1 9 20 -12 14 3
-23 50 -88 117 -187 215 -201 201 -3 -2 36 -50 86 -105 97 -109 118 -143 44
-72 -85 82 -252 299 -259 337 -12 67 10 125 79 202 73 82 226 222 235 216 6
-3 0 -16 -12 -28z m454 -59 c-5 -14 -29 -39 -52 -54 -40 -27 -52 -47 -29 -50
6 -1 14 -2 20 -3 5 0 7 -8 4 -16 -4 -10 -1 -14 7 -12 8 2 11 2 7 0 -5 -3 -8
-15 -8 -27 0 -12 -10 -32 -23 -44 l-23 -22 -39 40 c-32 32 -41 37 -57 29 -46
-25 -24 6 62 88 122 116 155 134 131 71z m5859 -277 c-127 -251 -152 -292
-167 -277 -4 4 -1 13 8 19 8 7 59 100 113 207 125 248 163 316 172 307 2 -1
-55 -117 -126 -256z m-505 177 c31 -18 34 -23 20 -30 -12 -7 -25 -3 -48 15
-28 21 -35 23 -51 12 -10 -8 -15 -19 -11 -25 5 -9 1 -10 -13 -6 -24 8 -40 -12
-21 -26 11 -8 11 -9 -2 -5 -10 3 -26 -13 -50 -49 -18 -30 -37 -54 -41 -54 -9
0 70 139 95 168 26 29 74 29 122 0z m-5345 -32 c0 -2 -8 -10 -17 -17 -16 -13
-17 -12 -4 4 13 16 21 21 21 13z m178 -63 c-12 -12 -23 -21 -26 -19 -2 3 -15
-8 -29 -24 -13 -16 -43 -44 -66 -62 l-42 -33 49 58 c56 66 100 104 122 104 10
0 8 -7 -8 -24z m-379 -73 c6 0 11 -4 11 -9 0 -9 -125 -122 -169 -153 -15 -11
-20 -21 -16 -30 5 -7 -17 14 -47 47 -46 49 -53 61 -39 66 9 4 23 15 31 25 14
18 13 18 -8 0 -31 -27 -28 -15 5 15 14 13 23 18 19 12 -4 -7 -3 -13 2 -13 10
0 39 30 43 45 2 6 21 25 43 44 l41 33 36 -41 c20 -22 42 -41 48 -41z m5871 40
c0 -5 -5 -10 -11 -10 -5 0 -7 5 -4 10 3 6 8 10 11 10 2 0 4 -4 4 -10z m-332
-45 c-6 -14 -13 -23 -15 -21 -5 5 15 46 22 46 3 0 -1 -11 -7 -25z m-4680 -100
c-3 -3 -25 18 -48 47 l-43 53 48 -47 c27 -26 46 -50 43 -53z m4462 65 c0 -5
-4 -10 -10 -10 -5 0 -10 5 -10 10 0 6 5 10 10 10 6 0 10 -4 10 -10z m-89 -54
c86 -33 250 -106 358 -160 129 -65 378 -232 395 -264 27 -51 28 -94 7 -162
-19 -60 -231 -468 -231 -445 0 6 36 85 81 175 115 235 148 327 120 344 -4 3
-11 18 -14 33 -11 49 -83 119 -214 206 -143 95 -186 118 -323 172 -52 21 -99
40 -105 43 -25 15 -190 21 -217 8 -15 -7 -18 -3 -18 17 0 60 58 72 161 33z
m848 -123 c106 -395 119 -870 36 -1286 -149 -749 -594 -1428 -1240 -1894 -765
-552 -1746 -742 -2677 -519 -243 58 -438 128 -669 240 -553 266 -1056 732
-1359 1261 -276 480 -416 1041 -395 1583 l7 184 27 -33 c24 -29 27 -37 20 -78
-4 -25 -7 -84 -7 -131 1 -81 2 -82 7 -25 4 40 8 54 13 42 12 -28 9 -166 -3
-189 -8 -15 -8 -19 0 -14 6 4 11 2 11 -3 0 -6 -5 -11 -11 -11 -14 0 -3 -190
12 -204 6 -6 9 -3 10 10 0 11 3 14 6 6 3 -7 -1 -19 -7 -27 -13 -16 -10 -18 12
-10 11 5 13 19 7 68 -15 120 -22 313 -14 411 l7 98 68 -67 c38 -37 66 -73 63
-80 -2 -7 4 -16 15 -19 22 -7 38 -39 47 -93 14 -83 36 -132 76 -167 46 -42 71
-45 93 -11 16 24 16 27 -7 58 -22 28 -67 120 -67 135 0 3 15 -8 32 -25 18 -17
51 -39 73 -50 41 -19 83 -64 389 -418 95 -110 189 -214 208 -232 32 -28 36
-38 43 -100 9 -86 48 -306 81 -448 14 -60 27 -118 29 -129 2 -11 -10 -2 -32
23 -49 58 -85 75 -128 61 -76 -25 -165 -150 -165 -232 0 -55 30 -125 91 -214
110 -160 256 -291 357 -320 47 -14 66 -15 123 -5 72 13 163 52 234 101 50 34
58 36 75 15 10 -12 7 -21 -19 -50 -17 -20 -31 -40 -31 -45 0 -17 30 -11 68 15
20 14 47 25 60 25 36 0 117 46 146 82 l26 33 -41 39 c-22 21 -38 43 -37 48 2
5 50 44 108 87 l103 77 206 -207 c218 -218 413 -386 626 -539 195 -139 174
-135 286 -59 331 222 660 516 946 844 l52 60 26 -25 c15 -14 33 -36 40 -50 12
-23 48 -43 203 -111 52 -23 52 -23 52 -3 0 9 -22 45 -50 80 -49 62 -55 86 -24
98 8 3 69 -21 135 -54 182 -92 319 -150 366 -157 48 -6 131 17 177 50 28 20
60 81 468 917 96 195 112 222 123 207 7 -9 17 -17 22 -17 17 0 150 269 168
339 18 72 62 162 175 366 43 77 87 160 97 185 l18 45 7 -50 c10 -79 9 -349 -2
-470 -38 -399 -164 -801 -358 -1143 -23 -41 -39 -79 -35 -84 3 -6 1 -8 -5 -4
-6 3 -26 -19 -47 -54 -20 -33 -61 -94 -91 -137 -30 -43 -40 -61 -22 -40 24 27
37 34 44 27 8 -8 16 -4 28 15 9 14 13 25 9 24 -19 -3 -23 2 -13 21 6 11 17 20
24 20 20 0 49 37 104 130 82 141 155 292 157 330 3 36 43 147 44 121 1 -27 18
2 49 84 53 142 120 414 118 478 -1 15 1 27 5 27 8 0 26 157 39 335 14 197 -19
571 -66 733 -25 85 -28 111 -18 150 11 38 21 25 43 -55z m-63 -153 c9 -47 21
-95 25 -108 6 -15 -14 1 -51 40 -33 34 -60 66 -60 71 0 19 53 98 61 90 4 -4
15 -46 25 -93z m-793 -66 c56 -30 109 -64 118 -74 9 -10 44 -30 78 -44 33 -13
74 -34 90 -45 16 -12 33 -21 38 -21 4 0 39 -18 77 -40 37 -22 76 -40 85 -40
14 -1 14 -2 -1 -11 -13 -7 -31 -4 -68 12 -56 24 -69 20 -90 -31 -15 -35 -24
-37 -68 -10 -18 11 -55 32 -83 46 -27 14 -46 30 -43 35 8 14 34 11 40 -5 7
-17 78 -66 97 -66 7 0 21 16 30 36 23 47 17 53 -98 108 -112 53 -151 65 -187
55 -25 -6 -27 -5 -18 11 8 16 3 24 -35 51 -25 18 -45 36 -45 41 0 19 -41 6
-56 -17 -9 -14 -19 -24 -21 -21 -5 5 45 86 53 86 3 0 51 -25 107 -56z m-156
-58 c-3 -8 -1 -17 6 -20 7 -2 2 -5 -10 -5 -22 -1 -31 18 -16 32 12 12 25 7 20
-7z m133 -71 c-7 -8 -17 -12 -23 -8 -6 4 -3 9 9 14 27 11 28 11 14 -6z m120
-67 c0 -17 -5 -16 -50 7 -46 23 -70 45 -35 32 8 -4 17 -2 20 4 10 14 65 -22
65 -43z m-5435 -28 c10 -11 16 -20 13 -20 -3 0 -13 9 -23 20 -10 11 -16 20
-13 20 3 0 13 -9 23 -20z m6853 -205 l93 -7 -71 -66 -71 -67 19 -93 c21 -107
26 -105 -80 -41 l-66 40 -77 -41 c-42 -24 -78 -41 -80 -39 -4 5 23 160 29 166
2 2 -25 31 -60 64 -35 33 -65 62 -66 66 -2 6 79 21 157 29 6 1 30 40 54 88
l44 86 41 -89 41 -89 93 -7z m-7274 9 c0 -1 30 -5 66 -8 117 -12 116 -10 41
-80 l-66 -62 16 -92 c8 -51 13 -91 9 -90 -3 2 -40 22 -82 46 l-76 42 -51 -30
c-28 -16 -64 -36 -80 -44 l-29 -15 14 72 c7 40 16 81 18 93 4 16 -10 34 -64
80 -38 32 -69 62 -69 67 -1 4 19 7 43 7 24 0 64 3 90 6 l48 7 41 83 41 83 44
-82 c25 -45 45 -83 46 -83z m1551 -38 c69 -266 166 -518 305 -796 120 -241
218 -401 407 -666 l43 -62 -182 -92 c-201 -102 -281 -152 -322 -201 -15 -17
-28 -30 -30 -28 -1 2 -11 33 -21 69 -10 36 -26 94 -36 130 -88 304 -166 727
-184 1005 -3 50 -10 142 -15 206 -14 174 -22 618 -11 594 5 -11 26 -83 46
-159z m4674 112 c-18 -36 -31 -48 -41 -42 -5 3 3 19 18 35 33 35 38 36 23 7z
m-132 -64 c60 -35 66 -52 7 -21 -27 15 -61 31 -76 36 -16 6 -28 15 -28 21 0
12 40 -2 97 -36z m-167 -128 c0 -6 -118 48 -163 74 -68 40 -38 31 63 -20 55
-28 100 -52 100 -54z m-4555 74 c-3 -5 -12 -10 -18 -10 -7 0 -6 4 3 10 19 12
23 12 15 0z m-697 -93 c18 -54 24 -83 15 -76 -12 11 -32 67 -49 144 -12 53 3
22 34 -68z m5322 -23 c0 -2 -9 0 -20 6 -11 6 -20 13 -20 16 0 2 9 0 20 -6 11
-6 20 -13 20 -16z m-4748 -402 c135 -153 170 -200 166 -213 -2 -7 -46 37 -98
97 -52 60 -159 182 -237 271 -79 89 -143 165 -143 170 1 12 192 -188 312 -325z
m-514 269 c3 -8 -1 -12 -9 -9 -7 2 -15 10 -17 17 -3 8 1 12 9 9 7 -2 15 -10
17 -17z m5390 -273 c-84 -173 -125 -241 -138 -233 -4 3 7 31 26 62 19 31 66
119 105 195 39 77 74 137 77 134 2 -3 -29 -74 -70 -158z m86 39 c-27 -60 -44
-80 -20 -24 26 61 39 87 43 84 2 -2 -8 -29 -23 -60z m-249 -352 c-14 -30 -36
-79 -49 -107 -13 -29 -71 -147 -129 -263 -313 -627 -295 -600 -395 -599 -46 1
-83 12 -192 59 -74 31 -164 75 -200 96 -36 21 -80 42 -98 45 -17 4 -32 12 -32
20 0 23 14 23 59 -4 127 -75 345 -161 425 -169 53 -4 66 -2 95 19 70 48 111
116 320 536 116 232 213 422 216 422 3 0 -6 -25 -20 -55z m835 -211 c22 -9 40
-17 40 -19 0 -1 -7 -22 -15 -45 -8 -24 -14 -44 -13 -45 2 -2 62 -22 133 -45
72 -23 133 -45 137 -49 10 -9 -22 -91 -35 -91 -5 0 -68 20 -140 45 -71 25
-131 44 -132 43 -1 -2 -9 -24 -19 -50 -17 -47 -29 -58 -41 -39 -3 5 -19 12
-36 16 -23 5 -29 11 -24 23 4 10 24 67 45 127 47 134 51 145 56 145 2 0 22 -7
44 -16z m-6515 -103 c16 -9 43 -39 60 -66 40 -65 41 -125 2 -183 -15 -23 -31
-42 -37 -42 -5 0 -21 16 -36 35 -25 33 -26 36 -10 60 23 34 20 62 -9 91 -30
30 -56 27 -142 -11 -39 -18 -54 -30 -59 -50 -12 -48 22 -86 81 -89 16 -1 21
-10 26 -44 3 -24 1 -45 -3 -49 -17 -10 -103 9 -131 29 -39 28 -67 92 -67 155
0 47 4 58 37 94 80 88 203 118 288 70z m6534 -275 c91 -42 166 -78 169 -80 2
-2 -6 -22 -18 -45 -14 -29 -27 -41 -43 -42 -12 0 -67 -6 -122 -13 l-100 -12
92 -47 92 -47 -21 -37 c-12 -21 -22 -39 -23 -40 -1 -3 -278 136 -315 157 -14
8 -27 16 -29 17 -1 1 7 20 20 42 15 27 30 41 43 41 30 0 221 12 223 14 1 1
-35 21 -80 45 -112 60 -109 56 -89 97 9 19 21 33 26 30 6 -2 85 -39 175 -80z
m-5352 -58 c28 -32 50 -68 57 -98 4 -16 -1 -10 -15 15 -26 48 -58 85 -74 85
-7 0 -35 -24 -64 -54 -49 -53 -51 -57 -51 -111 0 -31 5 -65 11 -77 6 -11 8
-22 6 -25 -13 -12 -37 61 -37 113 0 64 21 108 73 149 40 31 67 32 94 3z
m-1040 -28 c56 -25 103 -96 103 -156 0 -55 -11 -83 -51 -128 -71 -82 -185
-103 -263 -49 -47 32 -86 101 -86 150 0 141 166 243 297 183z m6112 -186 c2
-2 -18 -33 -43 -69 l-46 -66 22 -19 c13 -11 25 -19 28 -20 3 0 22 27 44 60 21
33 43 60 50 60 6 -1 22 -10 35 -20 l23 -20 -40 -62 -41 -63 27 -22 c15 -12 30
-22 33 -23 3 0 27 34 53 75 26 41 51 75 54 75 4 0 20 -11 36 -24 l30 -23 -58
-94 c-32 -52 -66 -105 -75 -118 l-18 -23 -161 105 c-89 59 -162 108 -162 111
0 5 95 160 122 199 l20 27 31 -22 c18 -12 34 -23 36 -24z m-4094 6 c-6 -10
-149 -127 -175 -143 -8 -5 26 29 75 76 50 47 93 83 98 80 4 -2 5 -8 2 -13z
m-814 -57 c13 -16 12 -17 -3 -4 -17 13 -22 21 -14 21 2 0 10 -8 17 -17z m-236
-88 c139 -180 279 -276 378 -260 55 10 180 59 240 96 53 33 65 36 47 14 -24
-29 -135 -84 -214 -105 -122 -34 -195 -17 -297 68 -63 51 -160 163 -189 215
-26 48 -20 43 35 -28z m-732 -11 l37 -55 -70 -87 c-38 -48 -65 -88 -60 -90 5
-2 49 13 97 33 48 20 95 38 103 41 9 3 26 -12 45 -41 17 -25 33 -45 38 -45 13
0 7 -23 -10 -36 -10 -8 -83 -57 -162 -111 l-144 -97 -23 29 c-13 17 -24 32
-24 35 0 3 46 36 101 75 55 38 103 74 106 79 4 5 0 6 -7 1 -7 -4 -66 -27 -131
-50 l-119 -43 -21 29 -20 29 38 47 c21 27 62 76 92 111 29 34 51 62 48 62 -3
0 -55 -34 -114 -75 l-108 -76 -27 33 c-15 18 -28 36 -28 40 0 3 44 34 98 67
53 34 124 81 157 105 33 24 62 45 65 45 3 0 22 -25 43 -55z m1543 -40 c-30
-21 -44 -16 -17 7 13 11 27 17 30 13 3 -3 -3 -12 -13 -20z m54 -38 c0 -3 -4
-8 -10 -11 -5 -3 -10 -1 -10 4 0 6 5 11 10 11 6 0 10 -2 10 -4z m4268 -179
c39 -28 72 -56 72 -62 0 -5 -12 -22 -25 -38 l-24 -27 -113 86 c-122 95 -122
93 11 -65 50 -60 53 -64 40 -88 -8 -14 -18 -27 -24 -29 -6 -3 -62 18 -124 46
-63 27 -116 48 -118 46 -3 -3 83 -69 164 -125 l33 -22 -27 -34 -27 -33 -45 31
c-65 44 -134 99 -201 160 l-58 52 42 49 c36 42 44 47 61 38 35 -20 195 -91
195 -86 0 2 -30 39 -66 82 -36 42 -68 83 -71 89 -3 7 11 35 31 62 l37 50 82
-66 c45 -36 115 -89 155 -116z m-4408 164 c0 -5 -7 -12 -16 -15 -14 -5 -15 -4
-4 9 14 17 20 19 20 6z m37 -66 c-13 -26 -22 -31 -32 -16 -3 5 5 17 17 25 29
20 28 21 15 -9z m128 -5 c-3 -5 -14 -10 -23 -10 -15 0 -15 2 -2 10 20 13 33
13 25 0z m-1336 -194 l44 -44 -36 -64 c-19 -35 -47 -84 -62 -110 -15 -27 -22
-48 -16 -48 14 0 184 109 193 124 5 7 29 -11 67 -48 l59 -59 -61 -56 c-33 -31
-68 -64 -76 -74 -9 -10 -46 -45 -83 -78 l-67 -60 -33 29 -32 30 104 101 105
101 -65 -36 c-36 -20 -96 -52 -134 -71 l-68 -34 -24 22 c-13 12 -24 27 -24 32
0 4 27 55 60 111 33 57 60 106 60 110 0 4 -39 -29 -86 -73 -48 -45 -90 -81
-94 -81 -3 0 -19 14 -35 30 l-29 30 54 47 c30 26 93 84 140 130 47 45 87 83
90 83 3 0 25 -20 49 -44z m5126 -56 l29 -30 -36 -38 -37 -37 109 -99 109 -99
-30 -39 -31 -38 -56 49 c-32 27 -79 72 -107 100 -51 53 -69 61 -78 37 -3 -8
-18 -23 -33 -32 -26 -18 -27 -18 -55 17 l-28 34 102 103 c56 56 104 102 107
102 4 0 19 -14 35 -30z m-227 -247 c33 -20 62 -73 62 -110 0 -23 5 -33 15 -33
20 0 165 -61 164 -69 0 -3 -19 -21 -41 -40 l-39 -35 -75 37 c-60 30 -79 35
-94 27 -24 -13 -25 -23 -5 -40 9 -7 30 -31 47 -52 l31 -39 -29 -30 c-15 -16
-33 -29 -39 -29 -10 0 -140 144 -218 242 l-38 49 47 42 c125 110 150 120 212
80z m-4518 -60 c0 -8 -59 -83 -111 -140 -59 -66 -64 -85 -32 -123 46 -55 81
-36 167 91 20 30 45 64 56 77 l19 23 46 -31 45 -31 -48 -61 c-150 -192 -177
-215 -237 -204 -45 9 -121 62 -151 105 -47 70 -32 112 101 288 l60 79 43 -34
c23 -19 42 -37 42 -39z m4218 -216 c48 -35 122 -87 165 -116 42 -30 77 -57 77
-61 0 -4 -18 -20 -40 -35 l-39 -27 -31 22 -31 22 -50 -33 c-51 -33 -54 -39
-34 -91 4 -9 -9 -22 -35 -37 -23 -13 -43 -21 -45 -20 -6 7 -105 357 -105 373
0 12 64 66 77 66 2 0 43 -28 91 -63z m-3930 18 l37 -25 -4 -125 c-1 -69 -1
-125 3 -125 3 0 29 41 58 90 29 50 55 90 59 90 10 0 79 -41 79 -46 0 -5 -119
-204 -176 -296 l-24 -37 -45 26 -46 25 3 123 c2 68 0 121 -4 119 -5 -3 -31
-43 -59 -89 -56 -91 -56 -91 -116 -45 l-21 16 51 80 c29 43 76 116 104 162 29
45 55 82 58 82 3 0 23 -11 43 -25z m3697 -136 c40 -36 60 -93 45 -133 -8 -22
-73 -79 -102 -88 -5 -2 6 -31 26 -65 20 -34 36 -64 36 -67 0 -3 -17 -15 -39
-25 -47 -24 -43 -28 -123 109 -120 205 -121 208 -101 218 10 5 49 26 86 46 86
45 124 47 172 5z m-3350 -56 c19 -9 35 -20 35 -23 0 -8 -159 -342 -166 -349
-3 -3 -24 5 -49 17 l-44 21 16 38 c35 86 154 313 163 313 5 0 25 -8 45 -17z
m3048 -68 l17 -35 -43 -19 c-23 -10 -59 -26 -80 -35 l-38 -15 15 -30 16 -29
49 23 c83 41 94 41 113 3 l16 -34 -70 -29 c-38 -16 -72 -33 -74 -37 -3 -4 2
-21 11 -37 l15 -30 81 34 c44 19 83 35 85 35 5 0 35 -72 31 -76 -15 -15 -209
-97 -232 -98 -28 -1 -31 3 -102 159 -40 88 -71 166 -70 174 2 12 207 110 233
111 6 0 18 -16 27 -35z m-2790 -39 c52 -22 89 -68 94 -120 l6 -46 -52 0 c-48
0 -51 2 -51 25 0 29 -32 65 -58 65 -46 0 -101 -80 -102 -147 0 -65 62 -93 114
-52 l27 21 35 -27 35 -27 -23 -25 c-39 -42 -76 -56 -135 -51 -60 5 -96 26
-130 78 -59 85 -4 250 102 308 28 16 99 15 138 -2z m2430 -90 c42 -18 71 -50
97 -108 41 -93 36 -180 -13 -227 -22 -20 -196 -86 -204 -77 -12 11 -121 362
-115 368 8 8 169 57 190 57 7 1 27 -5 45 -13z m-2059 -66 c3 -14 8 -88 11
-165 3 -77 8 -158 11 -181 l5 -41 -50 11 c-50 10 -51 10 -51 48 0 35 -3 38
-37 47 -89 23 -87 24 -105 -8 l-17 -30 -45 15 c-25 9 -46 19 -46 23 0 4 32 54
71 111 38 58 88 132 109 166 l40 61 49 -16 c40 -13 51 -21 55 -41z m241 -30
c159 -31 148 -25 141 -73 -4 -23 -8 -43 -10 -44 -1 -2 -25 1 -52 6 -27 5 -50
8 -51 7 -1 -1 -11 -62 -23 -136 -12 -74 -23 -140 -25 -146 -3 -9 -17 -9 -52
-2 -26 6 -49 11 -50 12 -2 2 10 66 25 145 16 78 26 144 23 146 -4 2 -23 6 -44
10 -46 9 -50 16 -42 65 6 34 10 39 28 35 12 -2 72 -14 132 -25z m1361 -44 c19
-19 34 -39 34 -44 0 -6 -20 -17 -45 -26 -41 -14 -47 -14 -52 0 -13 35 -83 34
-83 -1 0 -20 32 -35 75 -35 86 0 145 -52 145 -130 0 -83 -59 -130 -162 -130
-62 1 -92 15 -119 56 -27 42 -24 50 23 62 38 10 44 9 64 -14 36 -38 94 -28 94
18 0 22 -23 34 -83 41 -58 8 -103 30 -118 59 -15 28 -14 91 3 118 19 32 85 60
142 60 41 0 53 -5 82 -34z m-1077 -40 c0 -22 -8 -111 -17 -196 l-17 -155 -45
3 c-25 2 -48 7 -53 11 -6 6 27 342 37 376 2 6 24 9 50 7 l46 -4 -1 -42z m281
24 c41 -11 94 -61 109 -103 16 -41 13 -142 -4 -185 -44 -104 -154 -143 -250
-89 -75 41 -110 167 -75 271 27 83 128 132 220 106z m484 -17 c9 -46 39 -354
35 -357 -2 -2 -26 -6 -53 -7 l-49 -4 -64 94 c-53 80 -100 142 -80 106 3 -6 7
-55 8 -110 l3 -99 -42 -4 c-29 -2 -43 1 -46 10 -5 13 -26 371 -23 374 1 1 22
5 47 9 l45 7 74 -114 c73 -112 73 -113 67 -68 -5 38 -9 159 -7 183 1 4 19 7
40 7 35 0 40 -3 45 -27z"/>
<path d="M5746 8585 c-16 -80 -26 -148 -23 -151 2 -2 27 -7 55 -11 64 -7 96
11 122 70 27 61 33 108 20 155 -12 47 -41 67 -107 78 l-40 6 -27 -147z"/>
<path d="M4325 8559 c-3 -50 -5 -93 -2 -95 4 -4 97 15 106 22 4 4 -78 152 -88
159 -5 2 -12 -36 -16 -86z"/>
<path d="M6466 8507 c-9 -23 -16 -45 -16 -48 0 -8 67 -36 102 -43 52 -11 89
53 51 86 -18 15 -95 48 -112 48 -4 0 -16 -19 -25 -43z"/>
<path d="M5395 8119 c-4 -6 -5 -13 -2 -16 3 -3 75 -14 159 -24 343 -41 723
-156 1031 -310 42 -22 77 -37 77 -34 0 2 -24 17 -52 31 -54 27 -70 42 -62 56
3 4 1 8 -5 8 -5 0 -12 -4 -16 -9 -3 -6 -27 -1 -55 11 -28 12 -47 25 -43 31 4
6 0 8 -11 4 -10 -4 -15 -3 -11 3 3 6 -2 13 -12 17 -10 3 -26 13 -35 20 -9 8
-22 12 -27 8 -6 -3 -11 -2 -11 4 0 6 -7 8 -15 5 -21 -9 -76 16 -68 30 3 6 3 8
-2 4 -4 -4 -13 -4 -19 1 -32 26 -329 104 -521 136 -156 27 -205 30 -205 16 0
-5 -15 -7 -32 -6 -49 4 -50 4 -43 15 3 6 2 10 -4 10 -5 0 -13 -5 -16 -11z"/>
<path d="M5430 8120 c0 -5 4 -10 9 -10 6 0 13 5 16 10 3 6 -1 10 -9 10 -9 0
-16 -4 -16 -10z"/>
<path d="M6701 7726 c-10 -12 -2 -20 46 -47 288 -163 610 -435 840 -710 36
-43 70 -76 74 -73 5 3 5 13 -1 23 -5 10 -7 21 -4 24 3 3 -6 13 -21 23 -14 9
-34 33 -45 53 -21 43 -175 186 -199 186 -9 0 -16 5 -16 10 -1 21 -26 54 -57
76 -17 13 -28 17 -23 9 5 -9 4 -11 -3 -6 -7 4 -12 14 -12 23 0 10 -6 13 -16 9
-9 -3 -12 -2 -9 5 8 12 -24 39 -40 33 -6 -3 -20 4 -30 16 -10 11 -15 20 -10
20 4 0 3 6 -3 13 -6 6 -11 17 -11 22 -1 6 -7 11 -14 11 -6 1 -16 3 -22 4 -5 1
-13 2 -17 1 -5 0 -8 3 -8 9 0 6 -3 9 -7 8 -14 -2 -43 14 -38 22 3 4 -2 13 -10
20 -8 7 -12 17 -9 22 4 6 -4 4 -17 -3 -21 -11 -22 -10 -11 3 10 13 4 21 -43
52 -30 20 -55 34 -55 31 0 -3 -9 3 -21 14 -26 24 -129 88 -149 93 -8 2 -18 7
-21 11 -3 4 -11 1 -18 -7z m540 -383 c13 -16 12 -17 -3 -4 -10 7 -18 15 -18
17 0 8 8 3 21 -13z"/>
<path d="M7660 6876 c0 -2 8 -10 18 -17 15 -13 16 -12 3 4 -13 16 -21 21 -21
13z"/>
<path d="M7786 6702 c52 -80 67 -102 71 -102 2 0 -1 8 -6 18 -5 9 -9 21 -9 25
0 24 -26 64 -48 74 l-26 12 18 -27z"/>
<path d="M7900 6515 c46 -85 76 -128 42 -59 -12 23 -18 44 -15 48 4 3 1 6 -6
6 -7 0 -9 5 -6 10 4 6 -8 25 -26 42 l-32 33 43 -80z"/>
<path d="M2670 7796 c0 -10 73 -157 81 -162 5 -3 28 13 50 34 l42 39 -82 46
c-83 47 -91 51 -91 43z"/>
<path d="M7626 7706 l-90 -42 47 -38 c26 -21 49 -37 51 -35 5 6 86 159 83 158
-1 0 -42 -19 -91 -43z"/>
<path d="M4820 7309 c-450 -39 -984 -185 -1402 -382 l-116 -55 -8 -88 c-10
-120 -11 -472 -1 -614 32 -472 117 -874 271 -1287 245 -658 713 -1313 1270
-1778 131 -109 323 -255 336 -255 4 0 14 7 21 17 8 9 58 50 113 91 236 179
472 392 630 571 646 729 988 1524 1088 2526 18 179 17 771 -1 804 -24 43 -355
185 -632 271 -283 87 -620 155 -889 180 -133 12 -540 11 -680 -1z m695 -75
c451 -42 939 -172 1314 -350 l120 -56 6 -74 c12 -126 -1 -675 -20 -824 -23
-188 -59 -389 -95 -530 -16 -66 -30 -122 -30 -126 0 -3 -5 -2 -11 2 -8 4 -9
131 -4 445 l7 439 -25 0 c-17 0 -28 7 -32 20 -5 15 -15 20 -40 20 -19 0 -41 8
-51 18 -14 14 -35 17 -110 17 -89 0 -92 -1 -107 -28 -9 -15 -27 -31 -40 -36
l-24 -9 -7 -429 c-7 -485 -19 -912 -24 -838 -2 27 -8 56 -15 63 -8 10 -12 155
-14 508 -3 576 4 536 -102 527 l-63 -6 4 -48 c4 -35 1 -49 -7 -49 -19 0 -25
-24 -25 -94 l0 -63 30 5 c18 3 30 0 30 -7 0 -6 -13 -11 -30 -11 -34 0 -42 -25
-10 -27 11 -1 18 2 15 8 -4 5 -2 9 3 9 12 0 23 -26 15 -34 -3 -3 -17 -3 -29 0
-15 4 -24 2 -24 -5 0 -6 11 -11 25 -11 20 0 25 -5 25 -26 0 -20 -4 -25 -16
-20 -8 3 -12 2 -9 -4 3 -6 -1 -10 -9 -10 -10 0 -16 -8 -15 -22 1 -18 2 -19 6
-5 2 9 9 15 14 12 5 -4 9 -1 9 4 0 6 5 11 10 11 6 0 10 -15 10 -34 0 -25 -5
-35 -19 -39 -13 -3 -21 1 -24 12 -3 9 -5 -7 -6 -36 -1 -48 0 -51 22 -45 18 5
19 7 5 10 -15 3 -27 42 -14 42 2 0 11 3 20 6 13 5 16 -1 16 -26 0 -32 -13 -52
-40 -63 -10 -3 -7 -6 8 -6 12 -1 22 5 22 12 0 8 4 7 10 -3 16 -24 12 -30 -20
-30 -16 0 -30 -4 -30 -10 0 -5 14 -10 30 -10 40 0 38 -18 -2 -23 l-33 -3 32
-8 c38 -10 36 -26 -2 -18 -24 4 -25 2 -25 -46 0 -50 -1 -51 -32 -54 l-33 -3
-10 -277 c-6 -153 -14 -280 -18 -284 -4 -4 -7 191 -7 434 0 435 0 442 -20 442
-16 0 -20 7 -20 34 0 32 -3 34 -57 52 -46 15 -61 26 -72 49 l-15 30 -12 -31
c-10 -23 -21 -33 -45 -38 -18 -3 -48 -23 -70 -45 l-38 -40 4 -203 c2 -112 -1
-246 -6 -298 -9 -92 -8 -98 20 -180 66 -189 109 -337 108 -372 -1 -48 38 -105
112 -166 54 -44 56 -44 113 -39 59 5 177 53 238 97 36 26 53 26 20 0 -57 -46
-212 -131 -263 -144 -69 -18 -135 -7 -157 25 -8 13 -22 30 -30 39 -8 9 -11 11
-7 4 4 -7 12 -34 16 -61 17 -94 82 -309 110 -366 33 -64 31 -69 -42 -82 -34
-7 -37 -5 -37 17 0 22 -50 184 -159 513 -105 313 -270 849 -306 990 -12 50
-40 151 -60 225 -73 263 -70 251 -52 265 10 7 17 23 16 36 0 13 -3 18 -6 12
-6 -15 -39 -17 -48 -3 -7 11 35 31 48 23 4 -2 7 0 7 5 0 6 -7 12 -15 16 -8 3
-15 18 -16 33 0 23 -2 25 -8 9 -7 -18 -8 -18 -14 -3 -8 21 -60 23 -81 2 -8 -8
-24 -15 -35 -15 -11 0 -22 -9 -26 -21 -6 -17 -9 -19 -16 -8 -7 11 -9 10 -9 -3
0 -10 -6 -18 -12 -18 -9 0 -8 -4 2 -10 12 -8 9 -10 -12 -10 -15 0 -31 8 -37
18 -9 14 -10 11 -11 -17 0 -21 7 -39 17 -46 22 -16 19 -27 -71 -345 -37 -129
-85 -300 -108 -380 -22 -80 -58 -203 -79 -275 -46 -157 -275 -850 -289 -874
-8 -13 -9 -12 -10 9 -1 37 -16 6 -24 -50 -5 -33 -4 -41 3 -30 8 11 11 5 11
-27 l0 -43 -75 0 c-75 0 -93 10 -55 30 28 15 61 85 108 230 45 140 57 193 48
216 -5 13 -14 11 -60 -15 -72 -41 -124 -41 -202 0 -86 44 -85 49 7 27 68 -16
86 -17 112 -7 48 20 121 83 155 135 38 56 41 78 11 69 -20 -7 -20 -6 -5 18 9
13 32 70 51 127 34 100 34 106 23 167 l-12 63 -27 -26 c-16 -15 -26 -30 -24
-35 3 -4 -3 -5 -14 -2 -23 6 -29 -4 -40 -59 -8 -40 -9 -41 -10 -10 -1 17 -5
32 -11 32 -6 0 -11 -32 -11 -72 l-1 -73 -8 53 c-4 29 -10 55 -12 58 -3 2 -17
-7 -31 -20 -21 -19 -27 -35 -27 -66 0 -29 -4 -40 -15 -40 -12 0 -15 -13 -15
-57 0 -37 -3 -53 -9 -44 -7 11 -10 10 -18 -4 -9 -15 -11 -14 -17 10 -4 15 -6
72 -5 127 3 151 35 302 92 428 l25 55 -5 -42 c-4 -30 -2 -43 6 -43 7 0 9 -5 6
-11 -4 -6 -13 -8 -21 -5 -16 6 -19 -10 -3 -19 14 -9 49 24 49 46 0 41 20 26
26 -20 5 -38 10 -48 21 -44 13 5 12 1 -2 -21 -20 -30 -14 -46 10 -26 13 11 14
8 9 -19 -8 -39 1 -40 21 -2 28 56 28 115 0 196 -6 18 -4 17 14 -3 11 -13 25
-21 31 -17 5 3 10 -1 10 -9 0 -9 4 -16 8 -16 10 0 32 -60 32 -88 0 -46 19 -20
22 30 3 58 22 76 25 23 1 -19 6 -42 12 -52 8 -13 9 0 5 52 -7 76 -31 135 -65
158 -18 13 -19 18 -9 37 10 18 14 20 22 9 7 -11 11 -11 15 -1 3 8 10 5 23 -10
24 -30 39 -15 20 20 -21 38 -76 64 -127 60 -42 -3 -57 7 -28 18 8 4 15 14 15
23 0 14 2 14 10 1 8 -13 10 -12 10 2 0 13 11 20 40 24 33 5 38 9 29 20 -6 8
-17 14 -23 14 -6 0 -28 9 -49 20 -44 24 -57 25 -57 5 0 -8 -4 -14 -9 -13 -4 2
-18 -8 -29 -22 l-21 -25 -1 24 c0 14 -16 39 -39 62 -59 60 -107 47 -65 -17 9
-13 14 -27 11 -31 -9 -8 -39 5 -33 15 3 5 -7 7 -22 5 -22 -3 -24 -2 -7 5 17 8
16 10 -16 21 -23 7 -45 8 -60 3 -23 -9 -23 -9 9 -17 23 -5 32 -11 28 -21 -3
-9 2 -14 14 -14 13 0 20 -7 20 -20 0 -11 3 -20 8 -20 4 0 12 -9 19 -19 11 -18
10 -18 -44 -4 -60 15 -106 11 -137 -12 -19 -14 -18 -15 5 -24 14 -6 18 -10 8
-10 -8 -1 -26 -13 -40 -28 -13 -15 -16 -22 -7 -14 9 7 22 10 28 6 5 -3 10 -2
10 3 0 5 12 7 28 5 15 -2 42 -6 61 -8 47 -6 49 -12 7 -23 -50 -14 -116 -69
-133 -110 -17 -42 -8 -55 17 -24 12 14 21 18 25 12 5 -7 12 -5 21 7 11 14 14
15 14 3 1 -8 6 -4 12 10 10 24 10 24 18 5 5 -12 3 -26 -5 -35 -13 -16 -35 -75
-35 -96 0 -15 27 -44 41 -44 5 0 9 7 9 16 0 8 5 25 11 36 9 17 13 18 20 7 6
-10 9 -6 9 13 0 15 5 30 10 33 6 3 10 1 10 -4 0 -6 5 -11 10 -11 6 0 10 9 10
21 0 11 4 18 9 15 5 -3 12 4 16 17 3 12 9 17 11 10 3 -6 -3 -27 -13 -45 -9
-18 -18 -43 -20 -55 -1 -11 -13 -59 -27 -105 -15 -45 -31 -123 -38 -173 -6
-49 -14 -93 -17 -97 -4 -4 -16 -5 -29 -2 -20 6 -22 12 -22 76 0 38 -4 74 -9
81 -6 7 -28 33 -50 58 -27 31 -41 56 -41 74 0 16 -2 26 -5 24 -6 -7 -14 -73
-21 -189 -4 -58 -10 -111 -14 -119 -12 -22 -20 76 -15 179 2 52 1 173 -2 269
-6 157 -8 174 -25 179 -27 7 -22 19 12 31 17 5 30 17 30 26 0 14 -2 14 -24 0
-13 -9 -43 -16 -65 -17 -32 0 -42 -5 -47 -22 -3 -11 -19 -32 -35 -46 l-28 -25
-7 -225 -7 -225 -17 60 c-9 33 -32 89 -51 125 -19 36 -39 79 -46 95 -10 26
-12 19 -12 -65 -2 -120 -13 -143 -35 -69 -9 30 -19 70 -22 90 -5 32 10 303 20
369 3 14 7 48 10 75 10 94 35 220 60 307 26 88 99 258 111 258 4 0 4 -8 0 -17
-4 -10 -13 -43 -21 -73 -8 -30 -19 -59 -24 -64 -4 -4 -4 -21 2 -37 8 -24 13
-27 28 -19 23 12 43 70 42 121 -1 21 4 41 9 45 18 11 24 -5 28 -64 1 -7 5 -10
11 -7 6 4 9 -4 7 -17 -1 -15 3 -22 12 -20 9 2 11 -3 7 -13 -3 -8 -9 -23 -13
-32 -5 -13 -3 -15 11 -10 16 6 17 3 12 -19 -5 -17 -3 -23 4 -19 5 3 10 -3 10
-14 0 -11 -5 -23 -11 -27 -8 -4 -7 -9 2 -15 11 -6 10 -12 -4 -27 -26 -29 -22
-49 6 -26 20 17 20 16 -2 -9 -28 -31 -22 -46 10 -24 24 18 59 70 65 101 22 98
-9 253 -65 321 -11 14 -6 12 14 -5 16 -14 36 -33 43 -43 7 -9 18 -15 23 -12 5
4 9 -3 9 -14 0 -14 6 -21 18 -21 11 0 18 -8 19 -21 3 -30 10 -34 29 -18 16 13
16 12 4 -10 -11 -21 -10 -26 4 -36 10 -8 18 -35 23 -75 5 -53 8 -60 15 -39 5
13 7 42 3 65 -5 33 -2 44 15 59 22 19 22 18 21 -35 0 -19 2 -29 5 -22 5 10 9
9 19 -5 7 -10 17 -15 21 -11 4 4 1 14 -6 23 -11 13 -10 14 4 9 14 -6 15 -3 1
30 -18 42 -19 49 -5 41 6 -3 10 -15 10 -26 0 -10 5 -19 11 -19 14 0 5 40 -25
105 -30 66 -87 122 -153 152 -57 26 -68 37 -28 27 16 -4 25 -2 25 5 0 7 9 5
25 -5 24 -16 25 -16 25 7 1 23 2 23 18 -6 16 -28 17 -29 20 -8 2 16 9 22 25
20 13 -1 21 3 20 11 -4 15 13 16 22 1 4 -6 13 -8 21 -5 15 6 64 -48 64 -72 1
-12 5 -10 14 7 16 30 12 44 -25 93 -20 25 -25 38 -16 42 17 7 -21 36 -48 36
-12 0 -25 4 -31 9 -14 13 -84 21 -84 10 0 -5 -11 -7 -25 -5 -14 3 -25 0 -25
-6 0 -6 -10 -8 -26 -4 -15 4 -23 3 -20 -2 3 -5 -7 -12 -22 -15 -15 -3 -36 -9
-47 -13 -18 -7 -18 -6 -6 9 7 9 20 17 27 17 8 0 11 6 8 15 -4 10 0 13 16 10
18 -3 21 -1 17 15 -4 17 -1 19 20 14 23 -6 24 -5 13 16 -11 20 -10 21 12 15
12 -4 29 -14 36 -23 6 -9 12 -11 12 -5 0 7 -4 15 -10 18 -5 3 -15 16 -21 28
-11 21 -10 20 16 -3 27 -24 27 -24 16 -2 -6 12 -9 22 -7 22 3 0 15 -10 27 -22
20 -22 21 -22 15 -3 -5 19 -2 21 28 17 19 -2 37 1 41 8 15 24 -51 53 -148 65
-42 6 -46 8 -32 21 41 42 -37 35 -88 -7 -19 -16 -43 -49 -53 -74 -20 -48 -39
-61 -32 -20 4 18 0 26 -13 30 -11 4 -19 11 -19 17 0 6 6 6 15 -2 25 -21 17 3
-16 48 -20 27 -49 50 -87 68 -31 14 -65 31 -76 36 -17 9 -18 7 -12 -18 4 -15
15 -33 23 -39 13 -10 -6 -11 -85 -7 -72 3 -102 1 -102 -7 0 -11 22 -15 72 -11
15 1 37 -2 49 -5 l21 -7 -23 -24 c-27 -29 -24 -30 35 -3 26 11 52 18 59 16 7
-3 -3 -8 -21 -12 -41 -10 -36 -29 9 -34 31 -3 32 -4 10 -10 -16 -4 -27 -17
-32 -35 -7 -26 -7 -27 10 -12 24 22 44 21 36 -3 -3 -12 0 -21 10 -25 9 -3 15
-14 13 -23 -2 -10 3 -23 12 -30 9 -8 11 -12 3 -13 -6 0 -15 5 -18 11 -16 24
-120 60 -180 60 -70 1 -110 -12 -141 -46 -13 -14 -30 -25 -39 -25 -14 0 -16
21 -14 183 2 100 5 224 7 275 l4 94 107 50 c223 105 444 184 692 247 168 43
453 97 564 107 39 3 104 9 145 14 121 13 473 10 635 -6z m-1520 -764 c-10 -11
-21 -18 -23 -15 -3 3 3 12 14 20 27 20 30 18 9 -5z m-170 -10 c3 -5 2 -10 -4
-10 -5 0 -13 5 -16 10 -3 6 -2 10 4 10 5 0 13 -4 16 -10z m-365 -194 c0 -2 -7
-9 -15 -16 -13 -11 -14 -10 -9 4 5 14 24 23 24 12z m755 -24 c-3 -3 -11 0 -18
7 -9 10 -8 11 6 5 10 -3 15 -9 12 -12z m-815 -1 c0 -5 -6 -14 -14 -20 -16 -13
-32 2 -21 19 8 12 35 13 35 1z m135 -41 c8 0 17 10 21 22 l7 23 8 -23 c7 -19
12 -21 29 -12 17 9 20 8 20 -8 0 -14 -9 -21 -34 -25 -50 -8 -136 -67 -171
-117 l-30 -43 -8 39 c-4 22 -6 62 -5 89 3 46 5 50 28 49 14 -1 29 5 34 13 7
13 10 13 17 2 8 -12 10 -12 18 0 6 9 11 10 15 2 10 -16 26 -4 27 22 2 17 3 16
6 -5 2 -16 10 -28 18 -28z m120 -10 c-3 -5 -12 -10 -18 -10 -7 0 -6 4 3 10 19
12 23 12 15 0z m2825 -131 c0 -22 -4 -38 -8 -35 -8 5 -4 76 4 76 2 0 4 -18 4
-41z m-2820 21 c-8 -5 -19 -10 -25 -10 -5 0 -3 5 5 10 8 5 20 10 25 10 6 0 3
-5 -5 -10z m2777 -42 c-2 -13 -4 -5 -4 17 -1 22 1 32 4 23 2 -10 2 -28 0 -40z
m116 -11 c18 -4 17 -5 -5 -6 -26 -1 -28 2 -26 37 1 36 1 36 5 5 3 -23 10 -33
26 -36z m107 28 c0 -19 -4 -35 -8 -35 -4 0 -6 16 -4 35 2 19 6 35 8 35 2 0 4
-16 4 -35z m90 -5 c0 -22 -4 -40 -10 -40 -5 0 -10 15 -10 34 0 24 -5 36 -17
39 -11 3 -7 5 10 6 25 1 27 -2 27 -39z m-3155 -9 c-3 -6 -11 -11 -17 -11 -6 0
-6 6 2 15 14 17 26 13 15 -4z m132 -33 c-21 -44 -37 -61 -37 -38 0 12 51 92
56 87 2 -1 -7 -24 -19 -49z m-208 -34 c-44 -47 -37 -150 14 -192 12 -10 14 -4
10 40 -2 33 0 46 5 35 7 -17 9 -16 20 8 7 14 12 34 12 43 1 12 4 10 15 -8 l14
-25 1 30 c0 32 20 75 20 44 0 -21 27 -56 36 -46 4 4 1 13 -8 20 -10 8 -13 20
-9 36 6 23 7 23 25 -12 19 -34 19 -35 -1 -83 -59 -140 -117 -377 -140 -572
l-6 -56 -14 38 c-21 62 -81 340 -102 476 -33 216 -33 217 -9 240 28 26 34 25
42 -2 6 -22 7 -21 24 12 15 31 17 33 20 13 5 -31 20 -29 34 5 11 27 12 27 16
4 2 -15 -5 -33 -19 -48z m351 20 c0 -8 -4 -14 -10 -14 -5 0 -10 9 -10 21 0 11
5 17 10 14 6 -3 10 -13 10 -21z m2610 -21 c0 -12 -8 -18 -25 -18 -31 0 -33 22
-2 28 12 2 23 5 25 6 1 0 2 -7 2 -16z m270 -2 c0 -14 -6 -17 -25 -13 -39 7
-30 24 18 31 4 0 7 -7 7 -18z m-180 -7 c0 -10 -7 -14 -22 -12 -32 5 -35 28 -4
28 17 0 26 -5 26 -16z m-309 -56 c1 -18 2 -50 2 -70 0 -21 4 -38 9 -38 4 0 8
-5 8 -11 0 -5 -4 -8 -9 -5 -5 3 -8 -79 -6 -189 2 -173 0 -195 -14 -195 -14 0
-16 26 -13 247 2 183 0 248 -9 254 -16 9 -4 39 16 39 10 0 15 -10 16 -32z
m-68 2 c-3 -12 -8 -19 -11 -16 -5 6 5 36 12 36 2 0 2 -9 -1 -20z m287 6 c0 -9
-8 -12 -25 -8 -14 2 -25 7 -25 11 0 4 11 8 25 9 15 1 25 -3 25 -12z m90 -3 c0
-14 -2 -15 -9 -4 -5 7 -14 10 -20 7 -6 -4 -11 -2 -11 3 0 6 9 11 20 11 12 0
20 -7 20 -17z m90 1 c0 -7 -8 -10 -20 -7 -11 3 -20 8 -20 12 0 4 9 7 20 7 11
0 20 -6 20 -12z m90 6 c0 -5 -9 -10 -21 -10 -11 0 -17 5 -14 10 3 6 13 10 21
10 8 0 14 -4 14 -10z m-572 -155 c-2 -1 -13 -6 -25 -9 -17 -6 -23 -3 -23 8 0
10 9 17 23 17 l22 2 -22 4 c-27 5 -30 28 -7 37 12 4 15 2 10 -9 -3 -8 -1 -15
4 -15 6 0 10 14 10 30 0 17 -5 30 -11 30 -5 0 -7 -4 -4 -10 3 -5 -1 -10 -9
-10 -25 0 -19 28 7 32 20 3 22 -1 25 -51 2 -29 2 -54 0 -56z m302 97 c0 -4
-11 -9 -25 -10 -14 -1 -25 3 -25 8 0 6 11 10 25 10 14 0 25 -4 25 -8z m180 0
c0 -4 -9 -8 -20 -9 -11 -1 -20 2 -20 8 0 5 9 9 20 9 11 0 20 -4 20 -8z m84 -7
c-4 -8 -8 -15 -10 -15 -2 0 -4 7 -4 15 0 8 4 15 10 15 5 0 7 -7 4 -15z m-2937
-37 c-3 -8 -6 -5 -6 6 -1 11 2 17 5 13 3 -3 4 -12 1 -19z m2672 -15 c0 -11 -3
-13 -6 -6 -3 9 -10 10 -24 3 -15 -8 -19 -7 -19 5 0 9 9 15 25 15 17 0 25 -5
24 -17z m88 -5 c-3 -8 -6 -5 -6 6 -1 11 2 17 5 13 3 -3 4 -12 1 -19z m93 7 c0
-8 -2 -15 -4 -15 -2 0 -6 7 -10 15 -3 8 -1 15 4 15 6 0 10 -7 10 -15z m90 0
c0 -8 -4 -15 -10 -15 -5 0 -10 4 -10 9 0 5 -8 12 -17 14 -11 3 -7 5 10 6 18 1
27 -4 27 -14z m-203 -1 c-3 -3 -12 -4 -19 -1 -8 3 -5 6 6 6 11 1 17 -2 13 -5z
m113 -59 c0 -9 -9 -15 -22 -14 -21 1 -21 2 -3 7 l20 5 -20 8 c-19 7 -19 8 3 8
13 1 22 -5 22 -14z m80 0 c0 -8 -7 -15 -15 -15 -8 0 -15 7 -15 15 0 8 7 15 15
15 8 0 15 -7 15 -15z m-1616 -65 c5 -44 4 -50 -4 -30 -6 13 -16 27 -22 31 -6
4 -7 19 -3 39 10 43 22 27 29 -40z m134 -6 c19 -66 13 -73 -12 -14 -12 30 -21
59 -18 63 7 13 18 -4 30 -49z m1222 14 c0 -5 -14 -8 -31 -8 -16 0 -28 4 -25 9
7 11 56 9 56 -1z m90 2 c0 -5 -12 -10 -27 -9 l-28 1 25 8 c14 4 26 8 28 9 1 1
2 -3 2 -9z m170 -5 c0 -9 -6 -12 -16 -8 -13 5 -13 7 -2 14 17 11 18 11 18 -6z
m-2 -55 c-2 -6 -8 -6 -18 0 -13 9 -13 11 0 20 15 10 25 0 18 -20z m-1648 -18
c-1 -26 -35 -80 -45 -70 -3 3 2 28 11 56 18 53 34 60 34 14z m1360 34 c0 -3
-4 -8 -10 -11 -5 -3 -10 -1 -10 4 0 6 5 11 10 11 6 0 10 -2 10 -4z m30 -6 c0
-5 -2 -10 -4 -10 -3 0 -8 5 -11 10 -3 6 -1 10 4 10 6 0 11 -4 11 -10z m180 0
c0 -5 -9 -10 -20 -10 -11 0 -20 5 -20 10 0 6 9 10 20 10 11 0 20 -4 20 -10z
m-1440 -24 c0 -14 -4 -28 -10 -31 -6 -4 -10 7 -10 24 0 17 5 31 10 31 6 0 10
-11 10 -24z m-104 -150 c-17 -42 -29 -45 -50 -14 -22 32 -20 39 22 71 l37 29
3 -25 c2 -14 -4 -41 -12 -61z m168 65 c16 -18 16 -21 -4 -60 -11 -23 -24 -41
-28 -41 -4 0 -16 14 -26 30 -15 27 -16 34 -4 60 15 34 37 38 62 11z m506 -62
c0 -5 -21 -9 -46 -9 -25 0 -43 4 -39 9 7 12 85 12 85 0z m110 1 c0 -5 -4 -10
-10 -10 -5 0 -10 5 -10 10 0 6 5 10 10 10 6 0 10 -4 10 -10z m-53 -6 c-3 -3
-12 -4 -19 -1 -8 3 -5 6 6 6 11 1 17 -2 13 -5z m893 -4 c0 -5 -4 -10 -9 -10
-6 0 -13 5 -16 10 -3 6 1 10 9 10 9 0 16 -4 16 -10z m-1714 -105 c-16 -20 -30
-34 -33 -31 -5 5 15 103 25 120 3 5 12 -4 20 -22 14 -29 14 -33 -12 -67z m714
75 c0 -4 -7 -10 -15 -14 -10 -4 -15 1 -15 14 0 13 5 18 15 14 8 -4 15 -10 15
-14z m-410 -9 c0 -10 7 -38 15 -61 8 -24 14 -45 12 -47 -2 -1 -18 15 -35 36
-28 35 -31 43 -20 65 13 30 28 34 28 7z m460 9 c0 -5 -7 -10 -15 -10 -8 0 -15
5 -15 10 0 6 7 10 15 10 8 0 15 -4 15 -10z m55 0 c3 -5 -1 -10 -10 -10 -9 0
-13 5 -10 10 3 6 8 10 10 10 2 0 7 -4 10 -10z m55 0 c0 -5 -4 -10 -10 -10 -5
0 -10 5 -10 10 0 6 5 10 10 10 6 0 10 -4 10 -10z m-670 -30 c8 -14 8 -26 0
-40 -17 -32 -30 -23 -30 20 0 43 13 52 30 20z m1500 10 c0 -5 -4 -10 -10 -10
-5 0 -10 5 -10 10 0 6 5 10 10 10 6 0 10 -4 10 -10z m-1590 -35 c0 -19 -2 -35
-5 -35 -10 0 -24 40 -19 54 11 28 24 17 24 -19z m650 16 c0 -5 -18 -9 -40 -9
-22 0 -40 3 -40 9 0 5 18 9 40 9 22 0 40 -4 40 -9z m55 -1 c3 -5 -1 -10 -10
-10 -9 0 -13 5 -10 10 3 6 8 10 10 10 2 0 7 -4 10 -10z m55 0 c0 -5 -5 -10
-11 -10 -5 0 -7 5 -4 10 3 6 8 10 11 10 2 0 4 -4 4 -10z m370 -15 c0 -8 -9
-15 -20 -15 -11 0 -20 7 -20 15 0 8 9 15 20 15 11 0 20 -7 20 -15z m-1900 -5
c0 -13 -11 -13 -30 0 -12 8 -11 10 8 10 12 0 22 -4 22 -10z m1417 -41 c0 -27
-3 -29 -39 -29 -21 0 -38 5 -38 10 0 6 14 10 30 10 17 0 30 5 30 10 0 6 -13
10 -30 10 -16 0 -30 4 -30 9 0 6 17 10 38 9 36 0 39 -2 39 -29z m58 21 c3 -5
-1 -10 -10 -10 -9 0 -13 5 -10 10 3 6 8 10 10 10 2 0 7 -4 10 -10z m60 0 c3
-5 -1 -10 -9 -10 -9 0 -16 5 -16 10 0 6 4 10 9 10 6 0 13 -4 16 -10z m-797
-41 c13 -22 22 -42 20 -44 -2 -1 -31 -5 -65 -8 l-62 -5 37 48 c20 27 39 49 42
49 3 1 15 -18 28 -40z m199 -5 l33 -44 -65 0 c-39 0 -65 4 -65 11 0 13 50 79
59 78 3 0 21 -20 38 -45z m650 40 c-3 -3 -12 -4 -19 -1 -8 3 -5 6 6 6 11 1 17
-2 13 -5z m311 -6 c-7 -19 -38 -22 -38 -4 0 10 9 16 21 16 12 0 19 -5 17 -12z
m-423 -28 c3 -5 -1 -10 -10 -10 -9 0 -13 5 -10 10 3 6 8 10 10 10 2 0 7 -4 10
-10z m55 1 c0 -6 -4 -13 -10 -16 -5 -3 -10 1 -10 9 0 9 5 16 10 16 6 0 10 -4
10 -9z m45 -1 c3 -5 1 -10 -4 -10 -6 0 -11 5 -11 10 0 6 2 10 4 10 3 0 8 -4
11 -10z m315 -27 c0 -16 -5 -35 -10 -43 -10 -16 -12 -11 -12 35 0 34 0 35 12
35 6 0 10 -12 10 -27z m-470 -13 c0 -5 -11 -10 -24 -10 -13 0 -31 -3 -40 -6
-11 -4 -16 -1 -16 10 0 12 10 16 40 16 22 0 40 -4 40 -10z m60 0 c0 -5 -7 -10
-16 -10 -8 0 -12 5 -9 10 3 6 10 10 16 10 5 0 9 -4 9 -10z m45 -45 c-1 -76
-15 -82 -15 -7 0 34 4 62 8 62 5 0 8 -25 7 -55z m50 45 c3 -5 1 -10 -4 -10 -6
0 -11 5 -11 10 0 6 2 10 4 10 3 0 8 -4 11 -10z m-167 -45 c1 -5 -13 -10 -33
-12 -24 -2 -35 1 -35 9 0 14 63 17 68 3z m159 -67 c-2 -18 -4 -6 -4 27 0 33 2
48 4 33 2 -15 2 -42 0 -60z m-87 68 c0 -11 -19 -15 -25 -6 -3 5 1 10 9 10 9 0
16 -2 16 -4z m-757 -15 l29 -6 -38 -49 -37 -48 -14 33 c-8 19 -24 44 -35 56
l-21 23 44 -1 c24 -1 57 -4 72 -8z m257 -8 c-1 -5 -14 -23 -30 -42 -32 -38
-41 -36 -81 21 l-20 28 65 0 c36 0 66 -3 66 -7z m-1441 -13 c35 0 19 -12 -21
-15 -18 -2 -32 -7 -31 -12 8 -41 4 -158 -5 -161 -9 -3 -12 25 -12 98 0 101 0
102 23 96 12 -3 33 -6 46 -6z m1879 -6 c-10 -10 -78 -10 -78 0 0 7 15 10 41 8
22 -2 39 -6 37 -8z m-785 -61 c23 -25 27 -33 15 -33 -9 0 -26 12 -37 26 -25
31 -27 18 -6 -33 l16 -37 -48 -48 c-26 -26 -48 -46 -50 -44 -3 3 27 123 53
215 6 22 8 22 17 5 5 -11 23 -34 40 -51z m837 37 c0 -16 -3 -30 -7 -30 -5 0
-8 14 -8 30 0 17 3 30 8 30 4 0 7 -13 7 -30z m-481 -59 c-17 -18 -33 -31 -34
-29 -1 2 -8 14 -15 27 -11 21 -10 23 3 18 10 -4 23 6 39 28 23 34 23 34 31 11
6 -19 2 -30 -24 -55z m-1433 43 c-3 -9 -6 -45 -6 -81 0 -47 -3 -64 -12 -60 -7
2 -12 14 -10 25 2 12 -2 22 -7 22 -6 0 -11 5 -11 11 0 5 5 7 10 4 6 -3 10 3
10 15 0 12 -4 18 -10 15 -5 -3 -10 -2 -10 3 0 6 7 13 16 16 10 4 13 13 9 26
-5 15 -2 20 10 20 12 0 15 -5 11 -16z m295 -7 c-10 -9 -11 -8 -5 6 3 10 9 15
12 12 3 -3 0 -11 -7 -18z m1509 8 c0 -8 -4 -15 -10 -15 -5 0 -10 7 -10 15 0 8
5 15 10 15 6 0 10 -7 10 -15z m60 -5 c0 -6 -11 -9 -25 -8 -29 3 -33 15 -7 21
20 4 32 -1 32 -13z m-661 -92 c-1 -89 -2 -99 -13 -76 -6 15 -22 39 -36 53
l-24 25 32 33 c18 18 32 41 32 50 0 9 2 17 5 17 3 0 5 -46 4 -102z m771 92 c0
-5 -4 -10 -10 -10 -5 0 -10 5 -10 10 0 6 5 10 10 10 6 0 10 -4 10 -10z m-1942
-82 l-1 -63 -6 55 c-4 30 -5 58 -3 63 9 19 12 2 10 -55z m1296 13 l28 -39 -36
-54 -36 -53 0 98 c0 54 4 96 8 93 5 -3 21 -23 36 -45z m536 28 c0 -5 -18 -9
-40 -9 -22 0 -40 4 -40 9 0 6 18 9 40 9 22 0 40 -4 40 -9z m50 1 c0 -5 -4 -10
-10 -10 -5 0 -10 5 -10 10 0 6 5 10 10 10 6 0 10 -4 10 -10z m60 0 c0 -5 -4
-10 -10 -10 -5 0 -10 5 -10 10 0 6 5 10 10 10 6 0 10 -4 10 -10z m-468 -76
c22 -87 23 -105 1 -74 -9 14 -29 39 -45 56 -29 31 -29 31 -11 62 10 18 22 30
28 29 5 -2 17 -35 27 -73z m357 30 c2 -2 -7 -4 -22 -4 -14 0 -32 -3 -41 -6
-11 -4 -16 -1 -16 10 0 14 7 16 38 10 20 -4 39 -8 41 -10z m111 6 c0 -5 -5
-10 -11 -10 -5 0 -7 5 -4 10 3 6 8 10 11 10 2 0 4 -4 4 -10z m37 -72 c-2 -18
-4 -6 -4 27 0 33 2 48 4 33 2 -15 2 -42 0 -60z m-97 26 c0 -14 -4 -23 -9 -20
-7 5 -8 23 -2 44 4 12 11 -3 11 -24z m-60 1 c0 -8 -4 -15 -10 -15 -5 0 -10 7
-10 15 0 8 5 15 10 15 6 0 10 -7 10 -15z m-45 -5 c-3 -5 -10 -10 -16 -10 -5 0
-9 5 -9 10 0 6 7 10 16 10 8 0 12 -4 9 -10z m165 6 c0 -3 -4 -8 -10 -11 -5 -3
-10 -1 -10 4 0 6 5 11 10 11 6 0 10 -2 10 -4z m-821 -75 l40 -60 -62 -6 c-34
-4 -75 -4 -92 -2 -16 3 -38 6 -49 6 -14 1 -2 17 45 61 35 32 67 59 71 60 3 0
24 -27 47 -59z m-1221 -75 c-2 -68 -7 -122 -11 -119 -8 5 -8 222 0 236 11 19
14 -2 11 -117z m106 -11 c3 -72 2 -143 -2 -160 -5 -20 -9 7 -12 80 -5 106 -2
220 5 213 2 -2 6 -62 9 -133z m1377 17 c-55 -2 -98 1 -105 8 -7 7 5 25 39 59
l48 48 56 -56 56 -56 -94 -3z m392 88 c-3 -11 -7 -20 -8 -20 -1 0 -5 9 -8 20
-3 12 0 20 8 20 8 0 11 -8 8 -20z m107 5 c0 -8 -4 -15 -8 -15 -5 0 -9 7 -9 15
0 8 4 15 9 15 4 0 8 -7 8 -15z m-1920 -142 c0 -82 -5 -155 -10 -163 -6 -9 -9
43 -8 148 0 89 5 162 9 162 5 0 9 -66 9 -147z m1807 85 c-3 -8 -6 -5 -6 6 -1
11 2 17 5 13 3 -3 4 -12 1 -19z m600 -60 c-2 -13 -4 -5 -4 17 -1 22 1 32 4 23
2 -10 2 -28 0 -40z m-597 28 c0 -3 -4 -8 -10 -11 -5 -3 -10 -1 -10 4 0 6 5 11
10 11 6 0 10 -2 10 -4z m-1645 -23 c3 -10 1 -19 -4 -21 -6 -2 -11 -19 -11 -38
0 -19 -4 -34 -10 -34 -11 0 -13 52 -4 88 8 26 19 29 29 5z m484 -95 l-1 -83
-13 64 c-10 49 -10 69 -2 83 7 10 13 18 14 18 2 0 2 -37 2 -82z m527 32 c-5
-44 -96 -150 -96 -111 0 4 -16 29 -35 55 -20 25 -33 46 -29 46 4 0 -1 9 -11
20 -18 20 -17 20 78 20 l97 0 -4 -30z m334 22 c0 -12 -85 -122 -98 -127 -19
-7 -85 62 -100 105 l-9 25 103 0 c57 0 104 -2 104 -3z m902 -11 c-5 -3 -12
-17 -15 -31 -4 -22 -4 -22 -6 6 -1 33 6 47 21 37 7 -3 6 -8 0 -12z m-1456 -23
c36 -41 94 -128 94 -141 0 -14 -47 -64 -53 -56 -1 2 -22 29 -45 60 -42 55 -53
100 -36 143 8 22 17 20 40 -6z m638 -29 l17 -50 -46 -64 c-25 -35 -49 -66 -54
-69 -4 -3 -22 10 -40 28 -25 26 -31 39 -26 56 5 17 120 150 130 150 1 0 10
-23 19 -51z m-1452 -46 c-5 -83 -9 -90 -11 -20 0 37 2 67 7 67 4 0 6 -21 4
-47z m1062 -87 c-7 -105 -7 -106 -24 -79 -9 16 -24 34 -33 42 -26 21 -20 54
19 105 21 25 39 45 41 42 2 -2 1 -51 -3 -110z m156 12 c27 -51 28 -57 13 -69
-9 -8 -27 -32 -42 -54 l-26 -40 -6 50 c-4 28 -8 88 -8 135 l-1 85 21 -25 c11
-14 33 -50 49 -82z m-410 -91 c0 -20 -78 -89 -91 -81 -5 3 -17 0 -26 -8 -15
-11 -16 -11 -10 5 4 10 14 46 22 80 9 34 20 73 26 86 9 23 10 22 44 -22 19
-25 35 -52 35 -60z m740 -129 c0 -18 -21 -5 -79 50 l-62 57 38 54 38 53 32
-103 c18 -57 33 -107 33 -111z m-1543 165 c-3 -10 -5 -4 -5 12 0 17 2 24 5 18
2 -7 2 -21 0 -30z m1005 -59 c4 -6 1 -22 -6 -35 -12 -23 -10 -29 15 -57 l28
-31 4 37 c3 32 4 30 5 -13 2 -41 0 -47 -11 -35 -7 8 -41 44 -75 80 l-61 66 25
32 26 32 22 -32 c12 -18 25 -38 28 -44z m389 -77 c30 -25 29 -24 -12 3 -26 17
-64 50 -85 73 l-39 41 51 -44 c28 -25 66 -58 85 -73z m-1384 81 c-3 -8 -6 -5
-6 6 -1 11 2 17 5 13 3 -3 4 -12 1 -19z m853 -32 c0 -2 -8 -10 -17 -17 -16
-13 -17 -12 -4 4 13 16 21 21 21 13z m-40 -30 c0 -2 -8 -10 -17 -17 -16 -13
-17 -12 -4 4 13 16 21 21 21 13z m380 -70 c0 -2 -8 -10 -17 -17 -16 -13 -17
-12 -4 4 13 16 21 21 21 13z m283 -23 c-7 -2 -21 -2 -30 0 -10 3 -4 5 12 5 17
0 24 -2 18 -5z m-603 -187 c0 -2 -8 -10 -17 -17 -16 -13 -17 -12 -4 4 13 16
21 21 21 13z m-230 -141 c0 -8 -10 -20 -22 -26 -23 -12 -23 -12 -5 9 11 12 16
26 11 33 -4 8 -3 10 4 5 7 -4 12 -14 12 -21z m724 -221 c4 -11 -10 -14 -77
-13 -59 1 -74 4 -52 9 17 4 23 9 15 10 -26 4 53 15 82 12 15 -2 29 -10 32 -18z
m-660 1 c4 -12 -4 -15 -42 -14 -26 0 -41 3 -34 6 6 2 10 9 6 14 -3 5 10 9 29
9 22 0 37 -6 41 -15z m799 -12 c-7 -2 -21 -2 -30 0 -10 3 -4 5 12 5 17 0 24
-2 18 -5z"/>
<path d="M6120 5623 c0 -11 3 -14 8 -7 4 6 14 14 22 17 10 4 8 6 -7 6 -16 1
-23 -5 -23 -16z"/>
<path d="M5560 5283 c0 -4 5 -15 10 -23 8 -13 10 -13 10 2 0 9 -4 20 -10 23
-5 3 -10 3 -10 -2z"/>
<path d="M3744 5033 c15 -29 29 -53 31 -53 9 0 -25 75 -41 90 -9 9 -5 -7 10
-37z"/>
<path d="M5480 4516 c0 -2 8 -10 18 -17 15 -13 16 -12 3 4 -13 16 -21 21 -21
13z"/>
<path d="M2549 6133 c-13 -16 -12 -17 4 -4 9 7 17 15 17 17 0 8 -8 3 -21 -13z"/>
<path d="M2499 6093 c-13 -16 -12 -17 4 -4 9 7 17 15 17 17 0 8 -8 3 -21 -13z"/>
<path d="M2016 6006 c-31 -28 -45 -46 -37 -50 6 -4 11 -13 11 -19 0 -8 -3 -8
-8 -2 -4 6 -14 11 -22 13 -11 3 -10 -1 4 -16 18 -20 18 -20 53 0 40 24 70 77
57 101 -8 12 -17 8 -58 -27z"/>
<path d="M7333 5964 c0 -8 10 -14 22 -14 13 0 42 -7 65 -15 45 -16 65 -14 33
3 -10 5 -41 17 -69 25 -43 13 -51 13 -51 1z"/>
<path d="M2072 4720 c0 -14 2 -19 5 -12 2 6 2 18 0 25 -3 6 -5 1 -5 -13z"/>
<path d="M2081 4654 c0 -11 3 -14 6 -6 3 7 2 16 -1 19 -3 4 -6 -2 -5 -13z"/>
<path d="M2088 4565 c-3 -34 0 -88 8 -125 14 -72 42 -153 44 -130 0 12 4 11
15 -4 19 -25 19 -17 -1 50 -8 30 -26 102 -38 162 l-23 107 -5 -60z"/>
<path d="M2171 4270 c0 -8 4 -24 8 -35 5 -11 4 -28 -1 -39 -7 -14 -7 -16 2
-11 9 5 10 2 6 -13 -4 -13 9 -59 37 -129 62 -152 68 -162 82 -156 16 6 35 -27
35 -59 0 -18 -2 -20 -10 -8 -25 38 -6 -11 21 -55 17 -27 27 -40 24 -27 -4 12
-2 22 4 22 16 0 30 -33 27 -63 -2 -15 3 -35 11 -44 10 -14 13 -14 11 -3 -2 8
3 14 10 12 8 -1 1 21 -19 58 -17 33 -36 57 -42 53 -6 -3 -7 -1 -3 5 4 6 -9 42
-27 79 -27 53 -132 309 -170 413 -5 13 -5 13 -6 0z"/>
<path d="M2560 3476 c0 -2 8 -10 18 -17 15 -13 16 -12 3 4 -13 16 -21 21 -21
13z"/>
<path d="M2640 3370 c17 -22 34 -40 37 -40 2 0 -10 18 -27 40 -17 22 -34 40
-37 40 -2 0 10 -18 27 -40z"/>
<path d="M2704 3243 c98 -117 335 -357 311 -315 -5 10 -2 13 11 10 12 -2 19
-12 19 -27 1 -33 122 -133 146 -121 10 6 20 5 27 -2 7 -7 12 -10 12 -6 0 3
-48 46 -107 96 -106 89 -303 284 -396 392 -26 30 -47 51 -46 45 3 -26 -3 -27
-28 -4 -15 13 8 -18 51 -68z m22 -2 c2 -10 -7 -4 -21 13 -13 17 -21 34 -18 40
7 11 36 -28 39 -53z"/>
<path d="M7619 3303 c-13 -16 -12 -17 4 -4 16 13 21 21 13 21 -2 0 -10 -8 -17
-17z"/>
<path d="M7398 3066 c-115 -115 -208 -210 -208 -211 0 -2 9 -5 20 -8 15 -4 57
32 180 152 89 87 160 162 159 167 -2 16 13 54 22 54 5 0 8 5 7 11 -2 6 4 13
14 14 9 2 24 7 33 13 16 8 16 9 -1 14 -14 3 -73 -51 -226 -206z m-94 -124 c3
-5 -10 -23 -28 -41 -28 -27 -34 -30 -40 -16 -3 10 -1 15 7 13 7 -2 12 0 12 3
0 7 35 49 41 49 2 0 5 -4 8 -8z"/>
<path d="M7279 2923 c-13 -16 -12 -17 4 -4 9 7 17 15 17 17 0 8 -8 3 -21 -13z"/>
<path d="M7180 2821 c-25 -20 -46 -19 -33 2 3 6 -8 1 -25 -12 -31 -22 -40 -32
-24 -30 20 3 23 -3 11 -18 -15 -19 24 7 76 51 35 29 31 34 -5 7z"/>
<path d="M3247 2770 c9 -9 9 -17 2 -26 -7 -8 -6 -14 3 -20 7 -4 10 -4 6 1 -4
4 -3 14 2 20 7 9 5 16 -7 26 -15 11 -16 11 -6 -1z"/>
<path d="M7015 2734 c-317 -234 -701 -408 -1120 -509 -396 -96 -864 -110
-1302 -40 -32 5 -35 4 -19 -6 10 -6 46 -14 80 -16 34 -3 67 -10 73 -15 7 -6
22 -8 34 -5 12 3 22 0 25 -8 7 -17 44 -23 219 -35 146 -10 427 2 433 18 1 4
21 7 44 5 37 -3 40 -2 27 14 -13 17 -13 17 13 0 24 -15 27 -15 21 -1 -5 14 -3
15 14 5 17 -8 22 -7 27 4 3 9 18 14 38 14 18 -1 50 2 70 5 21 3 40 1 42 -3 16
-26 408 79 641 171 101 40 380 180 442 222 18 13 30 26 25 31 -4 5 -1 5 6 1 8
-5 40 10 85 39 116 77 149 106 138 119 -7 9 -7 16 1 24 22 22 3 11 -57 -34z
m-189 -150 c-1 -9 -10 -21 -19 -26 -22 -12 -19 11 3 29 19 16 19 16 16 -3z
m-122 -73 c3 -5 -1 -11 -9 -14 -9 -4 -12 -1 -8 9 6 16 10 17 17 5z m-99 -51
c7 -12 -52 -43 -67 -34 -6 4 3 14 23 25 41 22 37 21 44 9z m-83 -52 c-6 -6
-16 -7 -22 -3 -9 6 -9 9 1 16 17 10 34 0 21 -13z"/>
<path d="M3295 2726 c9 -14 21 -24 25 -21 4 3 20 -5 36 -17 15 -13 25 -17 21
-10 -5 6 -28 26 -54 43 -45 31 -45 31 -28 5z"/>
<path d="M3518 2583 c16 -13 19 -22 12 -29 -8 -8 9 -21 58 -47 41 -22 72 -33
78 -27 5 5 25 2 49 -9 25 -11 35 -20 27 -25 -6 -4 -21 -2 -32 4 -11 6 -20 8
-20 6 0 -10 61 -37 70 -31 6 3 10 2 10 -3 0 -21 368 -163 545 -211 135 -36
233 -56 242 -47 3 3 -3 6 -15 6 -26 0 -40 20 -15 21 10 0 -49 18 -132 40 -315
82 -555 178 -835 334 -36 20 -55 28 -42 18z m247 -143 c-3 -5 -11 -10 -16 -10
-6 0 -7 5 -4 10 3 6 11 10 16 10 6 0 7 -4 4 -10z m65 -30 c0 -5 -5 -10 -11
-10 -5 0 -7 5 -4 10 3 6 8 10 11 10 2 0 4 -4 4 -10z m473 -177 c-7 -2 -19 -2
-25 0 -7 3 -2 5 12 5 14 0 19 -2 13 -5z"/>
<path d="M4578 2153 c7 -3 16 -2 19 1 4 3 -2 6 -13 5 -11 0 -14 -3 -6 -6z"/>
<path d="M1949 3547 c-55 -30 -86 -78 -71 -112 6 -13 23 -32 37 -41 24 -15 28
-15 69 0 89 34 125 107 76 156 -26 26 -57 25 -111 -3z"/>
<path d="M7392 2554 c-27 -19 -27 -22 3 -59 l24 -29 26 24 c53 50 8 107 -53
64z"/>
<path d="M7135 2299 c4 -13 15 -41 24 -62 15 -37 17 -37 39 -22 12 9 22 20 22
24 0 5 -21 26 -46 46 -42 35 -46 36 -39 14z"/>
<path d="M6845 2188 c-11 -6 -21 -12 -23 -13 -5 -4 40 -75 47 -75 4 0 18 11
31 25 22 23 22 25 6 50 -18 27 -31 30 -61 13z"/>
<path d="M6193 1914 c-9 -4 -3 -32 22 -101 19 -52 36 -97 38 -100 8 -7 56 9
68 23 16 19 4 90 -24 139 -19 34 -28 40 -57 42 -19 1 -40 0 -47 -3z"/>
<path d="M4126 1815 c-17 -30 -28 -56 -25 -59 2 -2 18 -7 36 -10 l32 -7 -2 65
c-1 36 -4 66 -7 66 -3 0 -18 -25 -34 -55z"/>
<path d="M4954 1747 c-22 -19 -28 -34 -31 -78 -6 -65 8 -105 41 -120 59 -27
106 22 106 110 0 52 -16 86 -47 100 -33 15 -38 14 -69 -12z"/>
<path d="M2681 8370 c-332 -242 -639 -554 -904 -919 -77 -106 -198 -304 -285
-466 -97 -183 -126 -250 -116 -266 4 -7 3 -10 -4 -6 -27 18 -246 -612 -228
-656 2 -7 5 -3 6 8 1 19 1 19 11 2 11 -19 3 -57 -12 -57 -5 0 -9 7 -9 17 0 72
-54 -196 -80 -394 -65 -512 -38 -971 86 -1468 105 -419 280 -809 541 -1207
210 -321 531 -672 837 -918 17 -13 18 -13 12 0 -4 8 2 3 13 -11 36 -46 304
-239 331 -239 6 0 10 -5 10 -11 0 -5 5 -7 10 -4 6 3 10 2 10 -4 0 -5 30 -28
67 -50 50 -30 70 -37 80 -29 23 19 30 13 -122 109 -66 41 -144 95 -278 192
-32 23 -62 42 -67 42 -5 0 -22 14 -37 31 -15 18 -73 71 -128 120 -234 205
-435 426 -606 664 -413 573 -643 1160 -724 1845 -64 545 8 1195 188 1695 91
251 127 338 212 505 297 581 703 1060 1226 1447 60 44 109 82 109 84 0 2 -7 1
-15 -2 -8 -4 -15 -1 -15 5 0 22 -26 9 -119 -59z m-1634 -3047 c-3 -10 -5 -4
-5 12 0 17 2 24 5 18 2 -7 2 -21 0 -30z m0 -455 c-3 -7 -5 -2 -5 12 0 14 2 19
5 13 2 -7 2 -19 0 -25z"/>
<path d="M9211 5894 c0 -11 3 -14 6 -6 3 7 2 16 -1 19 -3 4 -6 -2 -5 -13z"/>
<path d="M9222 5850 c0 -14 2 -19 5 -12 2 6 2 18 0 25 -3 6 -5 1 -5 -13z"/>
<path d="M9231 5780 c-2 -24 -2 -24 -16 -6 -19 25 -19 37 7 -162 18 -135 22
-220 22 -447 1 -400 -22 -616 -100 -935 -217 -885 -737 -1668 -1484 -2234
-391 -295 -870 -538 -1306 -661 -71 -20 -153 -43 -182 -51 -98 -27 -343 -74
-505 -95 -141 -19 -207 -22 -517 -22 -360 1 -428 6 -670 48 -431 74 -855 213
-1206 394 -111 57 -151 74 -143 59 6 -11 17 -17 25 -14 7 3 13 2 13 -2 -6 -35
7 -46 119 -100 71 -35 131 -57 148 -56 19 1 37 -7 51 -23 26 -28 68 -46 251
-112 628 -225 1297 -294 1995 -205 70 9 127 19 127 23 0 3 21 7 48 8 116 5
577 126 550 145 -9 6 -6 7 7 4 65 -18 555 193 827 355 622 371 1082 827 1452
1438 79 130 158 290 150 303 -5 7 -2 8 6 3 10 -6 12 -4 7 9 -4 9 -3 15 2 12
16 -11 135 274 209 504 54 165 105 387 97 419 -3 17 -2 21 3 13 12 -18 46 203
38 250 -4 24 0 47 11 69 15 29 18 76 21 329 4 265 -9 556 -25 584 -3 4 -7 31
-10 60 -2 28 -8 67 -12 86 -7 29 -9 31 -10 10z"/>
<path d="M3085 1671 c-3 -5 -2 -12 3 -15 5 -3 9 1 9 9 0 17 -3 19 -12 6z"/>
</g>
</svg>
